<?xml version="1.0" encoding="UTF-8" standalone="no"?>
<!-- Slide 06: Real world complex problems - molecular / chemistry / DNA motif -->
<!-- Graphics recreated in SVG, inspired by https://github.com/Djohnnie/DeKrachtVanKwantumComputers-NerdlandFestival-2025/blob/main/_slides/06.jpg -->
<svg width="3840" height="2160" viewBox="0 0 3840 2160" xmlns="http://www.w3.org/2000/svg" xmlns:xlink="http://www.w3.org/1999/xlink">

  <defs>
    <linearGradient id="bgGradient" x1="0%" y1="0%" x2="100%" y2="100%">
      <stop offset="0%"   stop-color="#0B0F1E"/>
      <stop offset="55%"  stop-color="#0F1530"/>
      <stop offset="100%" stop-color="#151B3B"/>
    </linearGradient>

    <radialGradient id="glowCyan" cx="50%" cy="50%" r="50%">
      <stop offset="0%"   stop-color="#4FD8E8" stop-opacity="0.35"/>
      <stop offset="100%" stop-color="#4FD8E8" stop-opacity="0"/>
    </radialGradient>
    <radialGradient id="glowPurple" cx="50%" cy="50%" r="50%">
      <stop offset="0%"   stop-color="#8B6BE0" stop-opacity="0.30"/>
      <stop offset="100%" stop-color="#8B6BE0" stop-opacity="0"/>
    </radialGradient>

    <linearGradient id="accentGradient" x1="0%" y1="0%" x2="100%" y2="0%">
      <stop offset="0%"   stop-color="#3FD0E0"/>
      <stop offset="100%" stop-color="#8B6BE0"/>
    </linearGradient>
  </defs>

  <!-- ============ BACKGROUND ============ -->
  <rect x="0" y="0" width="3840" height="2160" fill="url(#bgGradient)"/>

  <!-- Subtle circuit-board style grid lines (very low opacity) -->
  <g stroke="#4FD8E8" stroke-width="1.5" opacity="0.06">
    <line x1="0" y1="360"  x2="3840" y2="360"/>
    <line x1="0" y1="720"  x2="3840" y2="720"/>
    <line x1="0" y1="1080" x2="3840" y2="1080"/>
    <line x1="0" y1="1440" x2="3840" y2="1440"/>
    <line x1="0" y1="1800" x2="3840" y2="1800"/>
    <line x1="640"  y1="0" x2="640"  y2="2160"/>
    <line x1="1280" y1="0" x2="1280" y2="2160"/>
    <line x1="1920" y1="0" x2="1920" y2="2160"/>
    <line x1="2560" y1="0" x2="2560" y2="2160"/>
    <line x1="3200" y1="0" x2="3200" y2="2160"/>
  </g>

  <!-- Decorative glows -->
  <circle cx="3450" cy="260" r="520" fill="url(#glowCyan)"/>
  <circle cx="420" cy="1950" r="560" fill="url(#glowPurple)"/>

  <!-- ============ HEADER / EYEBROW ============ -->
  <text x="160" y="200" font-family="Segoe UI, Calibri, Arial, sans-serif" font-size="63"
        letter-spacing="9" fill="#4FD8E8" font-weight="600">MOLECULAR CHEMISTRY &amp; DNA</text>

  <!-- Accent rule -->
  <rect x="160" y="250" width="330" height="12" rx="6" fill="url(#accentGradient)"/>

  <!-- ============ MOLECULAR / CHEMISTRY / DNA ILLUSTRATION ============ -->
<g transform="translate(700,1200)" fill="none" stroke="#4FD8E8" stroke-width="7" stroke-linecap="round">
  <polygon points="0.0,-230.0 199.2,-115.0 199.2,115.0 0.0,230.0 -199.2,115.0 -199.2,-115.0"/>
  <line x1="0.0" y1="-165.6" x2="143.4" y2="-82.8" stroke-width="5"/>
  <line x1="143.4" y1="82.8" x2="0.0" y2="165.6" stroke-width="5"/>
  <line x1="-143.4" y1="82.8" x2="-143.4" y2="-82.8" stroke-width="5"/>
</g>
<g transform="translate(700,1200)" fill="none" stroke="#4FD8E8" stroke-width="7" stroke-linecap="round">
  <line x1="0.0" y1="-230.0" x2="0.0" y2="-370.0"/>
  <line x1="199.2" y1="-115.0" x2="349.2" y2="-195.0"/>
  <line x1="199.2" y1="115.0" x2="349.2" y2="185.0"/>
  <line x1="349.2" y1="185.0" x2="499.2" y2="115.0"/>
</g>
<g transform="translate(700,1200)" font-family="Segoe UI, Calibri, Arial, sans-serif" font-weight="700" fill="#F5F6FA" text-anchor="middle">
  <text x="0.0" y="-395.0" font-size="80">H</text>
  <text x="404.2" y="-210.0" font-size="80">OH</text>
</g>
<g transform="translate(560,1780)">
  <line x1="0" y1="0" x2="-63.24999999999999" y2="-40.25" stroke="#4FD8E8" stroke-width="6" opacity="0.85"/>
  <line x1="0" y1="0" x2="63.24999999999999" y2="-34.5" stroke="#4FD8E8" stroke-width="6" opacity="0.85"/>
  <line x1="0" y1="0" x2="-34.5" y2="63.24999999999999" stroke="#4FD8E8" stroke-width="6" opacity="0.85"/>
  <line x1="0" y1="0" x2="46.0" y2="63.24999999999999" stroke="#4FD8E8" stroke-width="6" opacity="0.85"/>
  <circle cx="0" cy="0" r="25.299999999999997" fill="#4FD8E8" opacity="0.95"/>
  <circle cx="-63.24999999999999" cy="-40.25" r="18.4" fill="#F5F6FA" opacity="0.95"/>
  <circle cx="63.24999999999999" cy="-34.5" r="18.4" fill="#4FD8E8" opacity="0.95"/>
  <circle cx="-34.5" cy="63.24999999999999" r="18.4" fill="#F5F6FA" opacity="0.95"/>
  <circle cx="46.0" cy="63.24999999999999" r="18.4" fill="#F5F6FA" opacity="0.95"/>
</g>
<g transform="translate(900,1650)">
  <line x1="0" y1="0" x2="55.0" y2="-35.0" stroke="#4FD8E8" stroke-width="6" opacity="0.85"/>
  <line x1="0" y1="0" x2="-55.0" y2="-30.0" stroke="#4FD8E8" stroke-width="6" opacity="0.85"/>
  <line x1="0" y1="0" x2="30.0" y2="55.0" stroke="#4FD8E8" stroke-width="6" opacity="0.85"/>
  <line x1="0" y1="0" x2="-40.0" y2="55.0" stroke="#4FD8E8" stroke-width="6" opacity="0.85"/>
  <circle cx="0" cy="0" r="22.0" fill="#4FD8E8" opacity="0.95"/>
  <circle cx="55.0" cy="-35.0" r="16.0" fill="#F5F6FA" opacity="0.95"/>
  <circle cx="-55.0" cy="-30.0" r="16.0" fill="#4FD8E8" opacity="0.95"/>
  <circle cx="30.0" cy="55.0" r="16.0" fill="#F5F6FA" opacity="0.95"/>
  <circle cx="-40.0" cy="55.0" r="16.0" fill="#F5F6FA" opacity="0.95"/>
</g>
<g transform="translate(1900,1080)">
  <path d="M 0.0,-775.0 L 12.2,-767.2 L 24.4,-759.5 L 36.3,-751.8 L 47.9,-744.0 L 59.0,-736.2 L 69.7,-728.5 L 79.7,-720.8 L 89.0,-713.0 L 97.5,-705.2 L 105.2,-697.5 L 111.9,-689.8 L 117.6,-682.0 L 122.3,-674.2 L 125.9,-666.5 L 128.4,-658.8 L 129.7,-651.0 L 129.9,-643.2 L 129.0,-635.5 L 126.9,-627.8 L 123.6,-620.0 L 119.3,-612.2 L 113.9,-604.5 L 107.5,-596.8 L 100.2,-589.0 L 91.9,-581.2 L 82.9,-573.5 L 73.1,-565.8 L 62.6,-558.0 L 51.6,-550.2 L 40.2,-542.5 L 28.4,-534.8 L 16.3,-527.0 L 4.1,-519.2 L -8.2,-511.5 L -20.3,-503.8 L -32.3,-496.0 L -44.0,-488.2 L -55.4,-480.5 L -66.2,-472.8 L -76.4,-465.0 L -86.0,-457.2 L -94.8,-449.5 L -102.7,-441.8 L -109.8,-434.0 L -115.8,-426.2 L -120.9,-418.5 L -124.8,-410.8 L -127.7,-403.0 L -129.4,-395.2 L -130.0,-387.5 L -129.4,-379.8 L -127.7,-372.0 L -124.8,-364.2 L -120.9,-356.5 L -115.8,-348.7 L -109.8,-341.0 L -102.7,-333.3 L -94.8,-325.5 L -86.0,-317.8 L -76.4,-310.0 L -66.2,-302.2 L -55.4,-294.5 L -44.0,-286.8 L -32.3,-279.0 L -20.3,-271.2 L -8.2,-263.5 L 4.1,-255.8 L 16.3,-248.0 L 28.4,-240.2 L 40.2,-232.5 L 51.6,-224.8 L 62.6,-217.0 L 73.1,-209.2 L 82.9,-201.5 L 91.9,-193.8 L 100.2,-186.0 L 107.5,-178.2 L 113.9,-170.5 L 119.3,-162.8 L 123.6,-155.0 L 126.9,-147.2 L 129.0,-139.5 L 129.9,-131.8 L 129.7,-124.0 L 128.4,-116.2 L 125.9,-108.5 L 122.3,-100.8 L 117.6,-93.0 L 111.9,-85.2 L 105.2,-77.5 L 97.5,-69.8 L 89.0,-62.0 L 79.7,-54.2 L 69.7,-46.5 L 59.0,-38.8 L 47.9,-31.0 L 36.3,-23.2 L 24.4,-15.5 L 12.2,-7.8 L 0.0,0.0 L -12.2,7.8 L -24.4,15.5 L -36.3,23.2 L -47.9,31.0 L -59.0,38.8 L -69.7,46.5 L -79.7,54.2 L -89.0,62.0 L -97.5,69.8 L -105.2,77.5 L -111.9,85.3 L -117.6,93.0 L -122.3,100.7 L -125.9,108.5 L -128.4,116.2 L -129.7,124.0 L -129.9,131.8 L -129.0,139.5 L -126.9,147.2 L -123.6,155.0 L -119.3,162.8 L -113.9,170.5 L -107.5,178.2 L -100.2,186.0 L -91.9,193.8 L -82.9,201.5 L -73.1,209.2 L -62.6,217.0 L -51.6,224.8 L -40.2,232.5 L -28.4,240.2 L -16.3,248.0 L -4.1,255.8 L 8.2,263.5 L 20.3,271.2 L 32.3,279.0 L 44.0,286.8 L 55.4,294.5 L 66.2,302.2 L 76.4,310.0 L 86.0,317.8 L 94.8,325.5 L 102.7,333.2 L 109.8,341.0 L 115.8,348.8 L 120.9,356.5 L 124.8,364.2 L 127.7,372.0 L 129.4,379.8 L 130.0,387.5 L 129.4,395.2 L 127.7,403.0 L 124.8,410.8 L 120.9,418.5 L 115.8,426.2 L 109.8,434.0 L 102.7,441.8 L 94.8,449.5 L 86.0,457.2 L 76.4,465.0 L 66.2,472.8 L 55.4,480.5 L 44.0,488.2 L 32.3,496.0 L 20.3,503.8 L 8.2,511.5 L -4.1,519.2 L -16.3,527.0 L -28.4,534.8 L -40.2,542.5 L -51.6,550.2 L -62.6,558.0 L -73.1,565.8 L -82.9,573.5 L -91.9,581.2 L -100.2,589.0 L -107.5,596.8 L -113.9,604.5 L -119.3,612.2 L -123.6,620.0 L -126.9,627.8 L -129.0,635.5 L -129.9,643.2 L -129.7,651.0 L -128.4,658.8 L -125.9,666.5 L -122.3,674.2 L -117.6,682.0 L -111.9,689.8 L -105.2,697.5 L -97.5,705.2 L -89.0,713.0 L -79.7,720.8 L -69.7,728.5 L -59.0,736.2 L -47.9,744.0 L -36.3,751.8 L -24.4,759.5 L -12.2,767.2 L -0.0,775.0" fill="none" stroke="#F5F6FA" stroke-width="14" stroke-linecap="round"/>
  <path d="M 0.0,-775.0 L -12.2,-767.2 L -24.4,-759.5 L -36.3,-751.8 L -47.9,-744.0 L -59.0,-736.2 L -69.7,-728.5 L -79.7,-720.8 L -89.0,-713.0 L -97.5,-705.2 L -105.2,-697.5 L -111.9,-689.8 L -117.6,-682.0 L -122.3,-674.2 L -125.9,-666.5 L -128.4,-658.8 L -129.7,-651.0 L -129.9,-643.2 L -129.0,-635.5 L -126.9,-627.8 L -123.6,-620.0 L -119.3,-612.2 L -113.9,-604.5 L -107.5,-596.8 L -100.2,-589.0 L -91.9,-581.2 L -82.9,-573.5 L -73.1,-565.8 L -62.6,-558.0 L -51.6,-550.2 L -40.2,-542.5 L -28.4,-534.8 L -16.3,-527.0 L -4.1,-519.2 L 8.2,-511.5 L 20.3,-503.8 L 32.3,-496.0 L 44.0,-488.2 L 55.4,-480.5 L 66.2,-472.8 L 76.4,-465.0 L 86.0,-457.2 L 94.8,-449.5 L 102.7,-441.8 L 109.8,-434.0 L 115.8,-426.2 L 120.9,-418.5 L 124.8,-410.8 L 127.7,-403.0 L 129.4,-395.2 L 130.0,-387.5 L 129.4,-379.8 L 127.7,-372.0 L 124.8,-364.2 L 120.9,-356.5 L 115.8,-348.7 L 109.8,-341.0 L 102.7,-333.3 L 94.8,-325.5 L 86.0,-317.8 L 76.4,-310.0 L 66.2,-302.2 L 55.4,-294.5 L 44.0,-286.8 L 32.3,-279.0 L 20.3,-271.2 L 8.2,-263.5 L -4.1,-255.8 L -16.3,-248.0 L -28.4,-240.2 L -40.2,-232.5 L -51.6,-224.8 L -62.6,-217.0 L -73.1,-209.2 L -82.9,-201.5 L -91.9,-193.8 L -100.2,-186.0 L -107.5,-178.2 L -113.9,-170.5 L -119.3,-162.8 L -123.6,-155.0 L -126.9,-147.2 L -129.0,-139.5 L -129.9,-131.8 L -129.7,-124.0 L -128.4,-116.2 L -125.9,-108.5 L -122.3,-100.8 L -117.6,-93.0 L -111.9,-85.2 L -105.2,-77.5 L -97.5,-69.8 L -89.0,-62.0 L -79.7,-54.2 L -69.7,-46.5 L -59.0,-38.8 L -47.9,-31.0 L -36.3,-23.2 L -24.4,-15.5 L -12.2,-7.8 L -0.0,0.0 L 12.2,7.8 L 24.4,15.5 L 36.3,23.2 L 47.9,31.0 L 59.0,38.8 L 69.7,46.5 L 79.7,54.2 L 89.0,62.0 L 97.5,69.8 L 105.2,77.5 L 111.9,85.3 L 117.6,93.0 L 122.3,100.7 L 125.9,108.5 L 128.4,116.2 L 129.7,124.0 L 129.9,131.8 L 129.0,139.5 L 126.9,147.2 L 123.6,155.0 L 119.3,162.8 L 113.9,170.5 L 107.5,178.2 L 100.2,186.0 L 91.9,193.8 L 82.9,201.5 L 73.1,209.2 L 62.6,217.0 L 51.6,224.8 L 40.2,232.5 L 28.4,240.2 L 16.3,248.0 L 4.1,255.8 L -8.2,263.5 L -20.3,271.2 L -32.3,279.0 L -44.0,286.8 L -55.4,294.5 L -66.2,302.2 L -76.4,310.0 L -86.0,317.8 L -94.8,325.5 L -102.7,333.2 L -109.8,341.0 L -115.8,348.8 L -120.9,356.5 L -124.8,364.2 L -127.7,372.0 L -129.4,379.8 L -130.0,387.5 L -129.4,395.2 L -127.7,403.0 L -124.8,410.8 L -120.9,418.5 L -115.8,426.2 L -109.8,434.0 L -102.7,441.8 L -94.8,449.5 L -86.0,457.2 L -76.4,465.0 L -66.2,472.8 L -55.4,480.5 L -44.0,488.2 L -32.3,496.0 L -20.3,503.8 L -8.2,511.5 L 4.1,519.2 L 16.3,527.0 L 28.4,534.8 L 40.2,542.5 L 51.6,550.2 L 62.6,558.0 L 73.1,565.8 L 82.9,573.5 L 91.9,581.2 L 100.2,589.0 L 107.5,596.8 L 113.9,604.5 L 119.3,612.2 L 123.6,620.0 L 126.9,627.8 L 129.0,635.5 L 129.9,643.2 L 129.7,651.0 L 128.4,658.8 L 125.9,666.5 L 122.3,674.2 L 117.6,682.0 L 111.9,689.8 L 105.2,697.5 L 97.5,705.2 L 89.0,713.0 L 79.7,720.8 L 69.7,728.5 L 59.0,736.2 L 47.9,744.0 L 36.3,751.8 L 24.4,759.5 L 12.2,767.2 L 0.0,775.0" fill="none" stroke="#4FD8E8" stroke-width="14" stroke-linecap="round"/>
  <line x1="0.0" y1="-775.0" x2="0.0" y2="-775.0" stroke="#4FD8E8" stroke-width="16" opacity="0.55"/>
  <line x1="120.1" y1="-678.1" x2="-120.1" y2="-678.1" stroke="#F5F6FA" stroke-width="16" opacity="0.55"/>
  <line x1="91.9" y1="-581.2" x2="-91.9" y2="-581.2" stroke="#4FD8E8" stroke-width="16" opacity="0.55"/>
  <line x1="-49.7" y1="-484.4" x2="49.7" y2="-484.4" stroke="#F5F6FA" stroke-width="16" opacity="0.55"/>
  <line x1="-130.0" y1="-387.5" x2="130.0" y2="-387.5" stroke="#4FD8E8" stroke-width="16" opacity="0.55"/>
  <line x1="-49.7" y1="-290.6" x2="49.7" y2="-290.6" stroke="#F5F6FA" stroke-width="16" opacity="0.55"/>
  <line x1="91.9" y1="-193.8" x2="-91.9" y2="-193.8" stroke="#4FD8E8" stroke-width="16" opacity="0.55"/>
  <line x1="120.1" y1="-96.9" x2="-120.1" y2="-96.9" stroke="#F5F6FA" stroke-width="16" opacity="0.55"/>
  <line x1="0.0" y1="0.0" x2="-0.0" y2="0.0" stroke="#4FD8E8" stroke-width="16" opacity="0.55"/>
  <line x1="-120.1" y1="96.9" x2="120.1" y2="96.9" stroke="#F5F6FA" stroke-width="16" opacity="0.55"/>
  <line x1="-91.9" y1="193.8" x2="91.9" y2="193.8" stroke="#4FD8E8" stroke-width="16" opacity="0.55"/>
  <line x1="49.7" y1="290.6" x2="-49.7" y2="290.6" stroke="#F5F6FA" stroke-width="16" opacity="0.55"/>
  <line x1="130.0" y1="387.5" x2="-130.0" y2="387.5" stroke="#4FD8E8" stroke-width="16" opacity="0.55"/>
  <line x1="49.7" y1="484.4" x2="-49.7" y2="484.4" stroke="#F5F6FA" stroke-width="16" opacity="0.55"/>
  <line x1="-91.9" y1="581.2" x2="91.9" y2="581.2" stroke="#4FD8E8" stroke-width="16" opacity="0.55"/>
  <line x1="-120.1" y1="678.1" x2="120.1" y2="678.1" stroke="#F5F6FA" stroke-width="16" opacity="0.55"/>
  <line x1="-0.0" y1="775.0" x2="0.0" y2="775.0" stroke="#4FD8E8" stroke-width="16" opacity="0.55"/>
</g>
<g transform="translate(2650,1550)">
  <path d="M -113.8,87.0 L -260.0,360.0 Q 0.0,400.0 260.0,360.0 L 113.8,87.0 Z" fill="#4FD8E8" opacity="0.55"/>
  <path d="M -35.0,-310.0 L -35.0,-60.0 L -260.0,360.0 Q 0.0,400.0 260.0,360.0 L 35.0,-60.0 L 35.0,-310.0 " fill="none" stroke="#F5F6FA" stroke-width="14" stroke-linejoin="round" stroke-linecap="round"/>
  <line x1="-59.0" y1="-310.0" x2="59.0" y2="-310.0" stroke="#F5F6FA" stroke-width="14" stroke-linecap="round"/>
  <circle cx="-60" cy="290" r="22" fill="#F5F6FA" opacity="0.9"/>
  <circle cx="40" cy="220" r="30" fill="#F5F6FA" opacity="0.9"/>
  <circle cx="-10" cy="320" r="16" fill="#F5F6FA" opacity="0.9"/>
  <circle cx="20" cy="-3.0" r="14" fill="#F5F6FA" opacity="0.9"/>
  <circle cx="60" cy="-73.0" r="20" fill="#F5F6FA" opacity="0.9"/>
</g>
<g transform="translate(2950,640)">
  <line x1="0" y1="0" x2="-57.75" y2="-36.75" stroke="#4FD8E8" stroke-width="6" opacity="0.85"/>
  <line x1="0" y1="0" x2="57.75" y2="-31.5" stroke="#4FD8E8" stroke-width="6" opacity="0.85"/>
  <line x1="0" y1="0" x2="-31.5" y2="57.75" stroke="#4FD8E8" stroke-width="6" opacity="0.85"/>
  <line x1="0" y1="0" x2="42.0" y2="57.75" stroke="#4FD8E8" stroke-width="6" opacity="0.85"/>
  <circle cx="0" cy="0" r="23.1" fill="#4FD8E8" opacity="0.95"/>
  <circle cx="-57.75" cy="-36.75" r="16.8" fill="#F5F6FA" opacity="0.95"/>
  <circle cx="57.75" cy="-31.5" r="16.8" fill="#4FD8E8" opacity="0.95"/>
  <circle cx="-31.5" cy="57.75" r="16.8" fill="#F5F6FA" opacity="0.95"/>
  <circle cx="42.0" cy="57.75" r="16.8" fill="#F5F6FA" opacity="0.95"/>
</g>
<g transform="translate(3320,560)">
  <line x1="1.0409497792752502e-14" y1="-170.0" x2="147.2243186433546" y2="-84.99999999999999" stroke="#4FD8E8" stroke-width="6" opacity="0.85"/>
  <line x1="147.2243186433546" y1="-84.99999999999999" x2="147.2243186433546" y2="84.99999999999999" stroke="#4FD8E8" stroke-width="6" opacity="0.85"/>
  <line x1="147.2243186433546" y1="84.99999999999999" x2="1.0409497792752502e-14" y2="170.0" stroke="#4FD8E8" stroke-width="6" opacity="0.85"/>
  <line x1="1.0409497792752502e-14" y1="170.0" x2="-147.2243186433546" y2="84.99999999999999" stroke="#4FD8E8" stroke-width="6" opacity="0.85"/>
  <line x1="-147.2243186433546" y1="84.99999999999999" x2="-147.22431864335456" y2="-85.00000000000001" stroke="#4FD8E8" stroke-width="6" opacity="0.85"/>
  <line x1="-147.22431864335456" y1="-85.00000000000001" x2="1.0409497792752502e-14" y2="-170.0" stroke="#4FD8E8" stroke-width="6" opacity="0.85"/>
  <line x1="1.0409497792752502e-14" y1="-170.0" x2="1.6134721578766378e-14" y2="-263.5" stroke="#4FD8E8" stroke-width="6" opacity="0.85"/>
  <line x1="-147.2243186433546" y1="84.99999999999999" x2="-228.19769389719963" y2="131.74999999999997" stroke="#4FD8E8" stroke-width="6" opacity="0.85"/>
  <line x1="147.2243186433546" y1="84.99999999999999" x2="228.19769389719963" y2="131.74999999999997" stroke="#4FD8E8" stroke-width="6" opacity="0.85"/>
  <circle cx="1.0409497792752502e-14" cy="-170.0" r="42" fill="#F5F6FA" opacity="0.95"/>
  <circle cx="147.2243186433546" cy="-84.99999999999999" r="34" fill="#4FD8E8" opacity="0.95"/>
  <circle cx="147.2243186433546" cy="84.99999999999999" r="42" fill="#F5F6FA" opacity="0.95"/>
  <circle cx="1.0409497792752502e-14" cy="170.0" r="34" fill="#4FD8E8" opacity="0.95"/>
  <circle cx="-147.2243186433546" cy="84.99999999999999" r="42" fill="#F5F6FA" opacity="0.95"/>
  <circle cx="-147.22431864335456" cy="-85.00000000000001" r="34" fill="#4FD8E8" opacity="0.95"/>
  <circle cx="1.6134721578766378e-14" cy="-263.5" r="26" fill="#F5F6FA" opacity="0.95"/>
  <circle cx="-228.19769389719963" cy="131.74999999999997" r="22" fill="#4FD8E8" opacity="0.95"/>
  <circle cx="228.19769389719963" cy="131.74999999999997" r="22" fill="#F5F6FA" opacity="0.95"/>
</g>
<g transform="translate(3350,1250)">
  <line x1="-140" y1="-260" x2="-70" y2="-160" stroke="#4FD8E8" stroke-width="6" opacity="0.85"/>
  <line x1="-70" y1="-160" x2="-140" y2="-60" stroke="#4FD8E8" stroke-width="6" opacity="0.85"/>
  <line x1="-140" y1="-60" x2="-40" y2="20" stroke="#4FD8E8" stroke-width="6" opacity="0.85"/>
  <line x1="-40" y1="20" x2="-90" y2="140" stroke="#4FD8E8" stroke-width="6" opacity="0.85"/>
  <line x1="-90" y1="140" x2="10" y2="220" stroke="#4FD8E8" stroke-width="6" opacity="0.85"/>
  <line x1="10" y1="220" x2="60" y2="120" stroke="#4FD8E8" stroke-width="6" opacity="0.85"/>
  <line x1="60" y1="120" x2="140" y2="180" stroke="#4FD8E8" stroke-width="6" opacity="0.85"/>
  <circle cx="-140" cy="-260" r="30" fill="#F5F6FA" opacity="0.95"/>
  <circle cx="-70" cy="-160" r="22" fill="#4FD8E8" opacity="0.95"/>
  <circle cx="-140" cy="-60" r="30" fill="#F5F6FA" opacity="0.95"/>
  <circle cx="-40" cy="20" r="22" fill="#4FD8E8" opacity="0.95"/>
  <circle cx="-90" cy="140" r="30" fill="#F5F6FA" opacity="0.95"/>
  <circle cx="10" cy="220" r="22" fill="#4FD8E8" opacity="0.95"/>
  <circle cx="60" cy="120" r="30" fill="#F5F6FA" opacity="0.95"/>
  <circle cx="140" cy="180" r="22" fill="#4FD8E8" opacity="0.95"/>
</g>
<g transform="translate(3480,1780)">
  <line x1="0" y1="0" x2="57.75" y2="-36.75" stroke="#4FD8E8" stroke-width="6" opacity="0.85"/>
  <line x1="0" y1="0" x2="-57.75" y2="-31.5" stroke="#4FD8E8" stroke-width="6" opacity="0.85"/>
  <line x1="0" y1="0" x2="31.5" y2="57.75" stroke="#4FD8E8" stroke-width="6" opacity="0.85"/>
  <line x1="0" y1="0" x2="-42.0" y2="57.75" stroke="#4FD8E8" stroke-width="6" opacity="0.85"/>
  <circle cx="0" cy="0" r="23.1" fill="#4FD8E8" opacity="0.95"/>
  <circle cx="57.75" cy="-36.75" r="16.8" fill="#F5F6FA" opacity="0.95"/>
  <circle cx="-57.75" cy="-31.5" r="16.8" fill="#4FD8E8" opacity="0.95"/>
  <circle cx="31.5" cy="57.75" r="16.8" fill="#F5F6FA" opacity="0.95"/>
  <circle cx="-42.0" cy="57.75" r="16.8" fill="#F5F6FA" opacity="0.95"/>
</g>

  <!-- ============ FOOTER ============ -->
  <line x1="160" y1="2000" x2="3680" y2="2000" stroke="#2C3560" stroke-width="2"/>

  <text x="160" y="2065" font-family="Segoe UI, Calibri, Arial, sans-serif" font-size="45" fill="#7C86A8">EUMaster4HPC Summer School 2026</text>
  <text x="1920" y="2065" text-anchor="middle" font-family="Segoe UI, Calibri, Arial, sans-serif" font-size="45" fill="#7C86A8">Microsoft &#8226; The Cronos Group</text>

  <text x="3680" y="2065" text-anchor="end" font-family="Segoe UI, Calibri, Arial, sans-serif"
        font-size="45" fill="#7C86A8">06</text>

</svg>
