<?xml version="1.0" encoding="UTF-8" standalone="no"?>
<!-- Slide 20: The Bloch Sphere - plain sphere and sphere with state vector, side by side (recolored copies of 02-01_bloch-sphere.svg and 02-02_bloch-sphere-vector.svg) -->
<svg width="3840" height="2160" viewBox="0 0 3840 2160" xmlns="http://www.w3.org/2000/svg" xmlns:xlink="http://www.w3.org/1999/xlink">

  <defs>
    <linearGradient id="bgGradient" x1="0%" y1="0%" x2="100%" y2="100%">
      <stop offset="0%"   stop-color="#0B0F1E"/>
      <stop offset="55%"  stop-color="#0F1530"/>
      <stop offset="100%" stop-color="#151B3B"/>
    </linearGradient>

    <radialGradient id="glowCyan" cx="50%" cy="50%" r="50%">
      <stop offset="0%"   stop-color="#4FD8E8" stop-opacity="0.35"/>
      <stop offset="100%" stop-color="#4FD8E8" stop-opacity="0"/>
    </radialGradient>
    <radialGradient id="glowPurple" cx="50%" cy="50%" r="50%">
      <stop offset="0%"   stop-color="#8B6BE0" stop-opacity="0.30"/>
      <stop offset="100%" stop-color="#8B6BE0" stop-opacity="0"/>
    </radialGradient>

    <linearGradient id="accentGradient" x1="0%" y1="0%" x2="100%" y2="0%">
      <stop offset="0%"   stop-color="#3FD0E0"/>
      <stop offset="100%" stop-color="#8B6BE0"/>
    </linearGradient>
  </defs>

  <!-- ============ BACKGROUND ============ -->
  <rect x="0" y="0" width="3840" height="2160" fill="url(#bgGradient)"/>

  <!-- Subtle circuit-board style grid lines (very low opacity) -->
  <g stroke="#4FD8E8" stroke-width="1.5" opacity="0.06">
    <line x1="0" y1="360"  x2="3840" y2="360"/>
    <line x1="0" y1="720"  x2="3840" y2="720"/>
    <line x1="0" y1="1080" x2="3840" y2="1080"/>
    <line x1="0" y1="1440" x2="3840" y2="1440"/>
    <line x1="0" y1="1800" x2="3840" y2="1800"/>
    <line x1="640"  y1="0" x2="640"  y2="2160"/>
    <line x1="1280" y1="0" x2="1280" y2="2160"/>
    <line x1="1920" y1="0" x2="1920" y2="2160"/>
    <line x1="2560" y1="0" x2="2560" y2="2160"/>
    <line x1="3200" y1="0" x2="3200" y2="2160"/>
  </g>

  <!-- Decorative glows -->
  <circle cx="3450" cy="260" r="520" fill="url(#glowCyan)"/>
  <circle cx="420" cy="1950" r="560" fill="url(#glowPurple)"/>

  <!-- ============ HEADER / EYEBROW ============ -->
  <text x="160" y="200" font-family="Segoe UI, Calibri, Arial, sans-serif" font-size="63"
        letter-spacing="9" fill="#4FD8E8" font-weight="600">THE BLOCH SPHERE</text>

  <!-- Accent rule -->
  <rect x="160" y="250" width="330" height="12" rx="6" fill="url(#accentGradient)"/>

  <!-- ============ BLOCH SPHERE (plain), recolored copy ============ -->
  <svg x="470" y="470" width="1350" height="1350" viewBox="0 0 400 400" xmlns="http://www.w3.org/2000/svg">
    <g fill="#4FD8E8">
      <circle cx="200" cy="200" r="160" style="fill:#182449;stroke:#4FD8E8;stroke-width:0.69px;"/>
      <path d="M360,200C360,233.115 288.306,260 200,260C111.694,260 40,233.115 40,200" style="fill:none;stroke:#4FD8E8;stroke-width:0.69px;"/>
      <path d="M40,200C40,166.885 111.694,140 200,140C288.306,140 360,166.885 360,200" style="fill:none;stroke:#4FD8E8;stroke-width:0.69px;stroke-dasharray:3.47,3.47,0,0;"/>
      <path d="M200,360C166.885,360 140,288.306 140,200C140,111.694 166.885,40 200,40" style="fill:none;stroke:#4FD8E8;stroke-width:0.69px;"/>
      <path d="M200,40C233.115,40 260,111.694 260,200C260,288.306 233.115,360 200,360" style="fill:none;stroke:#4FD8E8;stroke-width:0.69px;stroke-dasharray:3.47,3.47,0,0;"/>
      <g transform="matrix(1,0,0,0.888889,0,22.2222)">
        <g transform="matrix(1,-0,-0,1.125,0,-25)">
          <path d="M195.833,48.333L200,40L204.167,48.333L195.833,48.333Z"/>
          <path d="M200,200L200,46.667" style="fill:none;stroke:#4FD8E8;stroke-width:1.39px;"/>
        </g>
      </g>
      <g transform="matrix(0.888889,0,0,1,22.2222,0)">
        <g transform="matrix(1.125,-0,-0,1,-25,0)">
          <path d="M351.667,195.833L360,200L351.667,204.167L351.667,195.833Z"/>
          <path d="M200,200L353.333,200" style="fill:none;stroke:#4FD8E8;stroke-width:1.39px;"/>
        </g>
      </g>
      <path d="M152.839,253.054L144,256L146.946,247.161L152.839,253.054Z"/>
      <path d="M200,200C200,200 162.204,237.796 148.714,251.286" style="fill:none;stroke:#4FD8E8;stroke-width:1.39px;"/>
      <g transform="matrix(1,0,0,1,44.4278,-3.83467)">
        <text x="85.45px" y="276.835px" style="font-family:'Segoe UI', 'Arial', sans-serif;font-size:16.667px;">x</text>
      </g>
      <g transform="matrix(1,0,0,1,325.015,178.104)">
        <text x="44.798px" y="24.388px" style="font-family:'Segoe UI', 'Arial', sans-serif;font-size:16.667px;">y</text>
      </g>
      <g transform="matrix(1,0,0,1,-154.419,-15.4671)">
        <text x="350.444px" y="45.467px" style="font-family:'Segoe UI', 'Arial', sans-serif;font-size:16.667px;">z</text>
      </g>
    </g>
  </svg>

  <!-- ============ BLOCH SPHERE WITH STATE VECTOR, recolored copy ============ -->
  <svg x="2020" y="470" width="1350" height="1350" viewBox="0 0 400 400" xmlns="http://www.w3.org/2000/svg">
    <g fill="#4FD8E8">
      <circle cx="200" cy="200" r="160" style="fill:#182449;stroke:#4FD8E8;stroke-width:0.69px;"/>
      <path d="M360,200C360,233.115 288.306,260 200,260C111.694,260 40,233.115 40,200" style="fill:none;stroke:#4FD8E8;stroke-width:0.69px;"/>
      <path d="M40,200C40,166.885 111.694,140 200,140C288.306,140 360,166.885 360,200" style="fill:none;stroke:#4FD8E8;stroke-width:0.69px;stroke-dasharray:3.47,3.47,0,0;"/>
      <path d="M200,360C166.885,360 140,288.306 140,200C140,111.694 166.885,40 200,40" style="fill:none;stroke:#4FD8E8;stroke-width:0.69px;"/>
      <path d="M200,40C233.115,40 260,111.694 260,200C260,288.306 233.115,360 200,360" style="fill:none;stroke:#4FD8E8;stroke-width:0.69px;stroke-dasharray:3.47,3.47,0,0;"/>
      <g transform="matrix(1,0,0,0.888889,0,22.2222)">
        <path d="M200,200L200,20" style="fill:none;stroke:#4FD8E8;stroke-width:0.73px;"/>
      </g>
      <g transform="matrix(0.888889,0,0,1,22.2222,0)">
        <path d="M200,200L380,200" style="fill:none;stroke:#4FD8E8;stroke-width:0.73px;"/>
      </g>
      <path d="M200,200L144,256" style="fill:none;stroke:#4FD8E8;stroke-width:0.69px;"/>
      <g transform="matrix(1,0,0,1,44.4278,-3.83467)">
        <text x="85.45px" y="276.835px" style="font-family:'Segoe UI', 'Arial', sans-serif;font-size:16.667px;">x</text>
      </g>
      <g transform="matrix(1,0,0,1,325.015,178.104)">
        <text x="44.798px" y="24.388px" style="font-family:'Segoe UI', 'Arial', sans-serif;font-size:16.667px;">y</text>
      </g>
      <g transform="matrix(1,0,0,1,-154.419,-15.4671)">
        <text x="350.444px" y="45.467px" style="font-family:'Segoe UI', 'Arial', sans-serif;font-size:16.667px;">z</text>
      </g>
    </g>
    <g fill="#8B6BE0">
      <g transform="matrix(0.655172,0,0,1.28182,68.9655,-56.3636)">
        <g transform="matrix(1.52632,-0,-0,0.780142,-105.263,43.9716)">
          <path d="M268.378,64.359L276,59L275.714,68.313C274.868,65.49 271.201,63.513 268.378,64.359Z"/>
          <path d="M200,200C200,200 258.463,91.536 272.837,64.868" style="fill:none;stroke:#8B6BE0;stroke-width:2.78px;"/>
        </g>
      </g>
      <g transform="matrix(1,0,0,1,-1.0243,33.1307)">
        <g transform="matrix(0.138805,0,0,0.13883,276.777,14.5771)">
          <text x="0px" y="0px" style="font-family:'Cambria Math', 'CambriaMath', serif;font-size:110px;">|</text>
        </g>
        <g transform="matrix(0.138805,0,0,0.13883,281.635,14.5771)">
          <text x="0px" y="0px" style="font-family:'Cambria Math', 'CambriaMath', serif;font-size:110px;">&#966;</text>
        </g>
        <g transform="matrix(0.138805,0,0,0.13883,292.462,14.5771)">
          <text x="0px" y="0px" style="font-family:'Cambria Math', 'CambriaMath', serif;font-size:110px;">&#10217;</text>
        </g>
      </g>
    </g>
  </svg>

  <!-- ============ FOOTER ============ -->
  <line x1="160" y1="2000" x2="3680" y2="2000" stroke="#2C3560" stroke-width="2"/>

  <text x="160" y="2065" font-family="Segoe UI, Calibri, Arial, sans-serif" font-size="45" fill="#7C86A8">EUMaster4HPC Summer School 2026</text>
  <text x="1920" y="2065" text-anchor="middle" font-family="Segoe UI, Calibri, Arial, sans-serif" font-size="45" fill="#7C86A8">Microsoft &#8226; The Cronos Group</text>

  <text x="3680" y="2065" text-anchor="end" font-family="Segoe UI, Calibri, Arial, sans-serif"
        font-size="45" fill="#7C86A8">20</text>

</svg>
