<?xml version="1.0" encoding="UTF-8" standalone="no"?>
<!-- Slide 37: H-Gate - gate symbol, Bloch sphere rotation, and matrix representation (based on Quantum-Summer-Lab-2025 slide 219.jpg; recolored copies of 03-01_gate-h.svg and 03-02_gate-h-bloch-sphere.svg) -->
<svg width="3840" height="2160" viewBox="0 0 3840 2160" xmlns="http://www.w3.org/2000/svg" xmlns:xlink="http://www.w3.org/1999/xlink">

  <defs>
    <linearGradient id="bgGradient" x1="0%" y1="0%" x2="100%" y2="100%">
      <stop offset="0%"   stop-color="#0B0F1E"/>
      <stop offset="55%"  stop-color="#0F1530"/>
      <stop offset="100%" stop-color="#151B3B"/>
    </linearGradient>

    <radialGradient id="glowCyan" cx="50%" cy="50%" r="50%">
      <stop offset="0%"   stop-color="#4FD8E8" stop-opacity="0.35"/>
      <stop offset="100%" stop-color="#4FD8E8" stop-opacity="0"/>
    </radialGradient>
    <radialGradient id="glowPurple" cx="50%" cy="50%" r="50%">
      <stop offset="0%"   stop-color="#8B6BE0" stop-opacity="0.30"/>
      <stop offset="100%" stop-color="#8B6BE0" stop-opacity="0"/>
    </radialGradient>

    <linearGradient id="accentGradient" x1="0%" y1="0%" x2="100%" y2="0%">
      <stop offset="0%"   stop-color="#3FD0E0"/>
      <stop offset="100%" stop-color="#8B6BE0"/>
    </linearGradient>
  </defs>

  <!-- ============ BACKGROUND ============ -->
  <rect x="0" y="0" width="3840" height="2160" fill="url(#bgGradient)"/>

  <!-- Subtle circuit-board style grid lines (very low opacity) -->
  <g stroke="#4FD8E8" stroke-width="1.5" opacity="0.06">
    <line x1="0" y1="360"  x2="3840" y2="360"/>
    <line x1="0" y1="720"  x2="3840" y2="720"/>
    <line x1="0" y1="1080" x2="3840" y2="1080"/>
    <line x1="0" y1="1440" x2="3840" y2="1440"/>
    <line x1="0" y1="1800" x2="3840" y2="1800"/>
    <line x1="640"  y1="0" x2="640"  y2="2160"/>
    <line x1="1280" y1="0" x2="1280" y2="2160"/>
    <line x1="1920" y1="0" x2="1920" y2="2160"/>
    <line x1="2560" y1="0" x2="2560" y2="2160"/>
    <line x1="3200" y1="0" x2="3200" y2="2160"/>
  </g>

  <!-- Decorative glows -->
  <circle cx="3450" cy="260" r="520" fill="url(#glowCyan)"/>
  <circle cx="420" cy="1950" r="560" fill="url(#glowPurple)"/>

  <!-- ============ HEADER / EYEBROW ============ -->
  <text x="160" y="200" font-family="Segoe UI, Calibri, Arial, sans-serif" font-size="63"
        letter-spacing="9" fill="#4FD8E8" font-weight="600">H-GATE</text>

  <!-- Accent rule -->
  <rect x="160" y="250" width="330" height="12" rx="6" fill="url(#accentGradient)"/>

  <g transform="translate(43.80,-218.80) scale(1.18)">


  <!-- ============ GATE SYMBOL, recolored copy of 03-01_gate-h.svg ============ -->
  <svg x="150" y="935" width="900" height="450" viewBox="0 0 600 300" xmlns="http://www.w3.org/2000/svg">
    <path d="M480,150l-360,0" style="fill:none;stroke:#4FD8E8;stroke-width:2.08px;"/>
    <g fill="#F5F6FA">
      <g transform="matrix(0.999821,0,0,1,0.0091155,-2.84217e-14)">
        <text x="50.99px" y="162.085px" style="font-family:'Cambria Math', 'CambriaMath', serif;font-size:45.814px;">|</text>
      </g>
      <g transform="matrix(0.999821,0,0,1,0.0116466,-2.84217e-14)">
        <text x="65.148px" y="162.085px" style="font-family:'Cambria Math', 'CambriaMath', serif;font-size:45.814px;">q</text>
      </g>
      <g transform="matrix(0.999821,0,0,1,0.0164109,0)">
        <g transform="matrix(45.8138,0,0,45.8138,91.7981,160.419)">
          <path d="M0.104,-0.701l0.195,0.438l-0,0.036l-0.195,0.439l-0.052,-0.018l0.156,-0.439l-0.156,-0.439l0.052,-0.017Z" style="fill-rule:nonzero;"/>
        </g>
      </g>
    </g>
    <rect x="225" y="75" width="150" height="150" style="fill:#182449;stroke:#8B6BE0;stroke-width:4.17px;"/>
    <text x="269.93px" y="180px" style="font-family:'Segoe UI', 'Arial', sans-serif;font-size:83.333px;fill:#8B6BE0;">H</text>
  </svg>

  <!-- ============ BLOCH SPHERE WITH H-ROTATION, recolored copy of 03-02_gate-h-bloch-sphere.svg ============ -->
  <svg x="1210" y="660" width="1000" height="1000" viewBox="0 0 400 400" xmlns="http://www.w3.org/2000/svg">
    <g fill="#4FD8E8">
      <circle cx="200" cy="200" r="160" style="fill:#182449;stroke:#4FD8E8;stroke-width:0.69px;"/>
      <path d="M360,200C360,233.115 288.306,260 200,260C111.694,260 40,233.115 40,200" style="fill:none;stroke:#4FD8E8;stroke-width:0.69px;"/>
      <path d="M40,200C40,166.885 111.694,140 200,140C288.306,140 360,166.885 360,200" style="fill:none;stroke:#4FD8E8;stroke-width:0.69px;stroke-dasharray:3.47,3.47,0,0;"/>
      <path d="M200,360C166.885,360 140,288.306 140,200C140,111.694 166.885,40 200,40" style="fill:none;stroke:#4FD8E8;stroke-width:0.69px;"/>
      <path d="M200,40C233.115,40 260,111.694 260,200C260,288.306 233.115,360 200,360" style="fill:none;stroke:#4FD8E8;stroke-width:0.69px;stroke-dasharray:3.47,3.47,0,0;"/>
      <g transform="matrix(1,0,0,0.888889,0,22.2222)">
        <path d="M200,200L200,20" style="fill:none;stroke:#4FD8E8;stroke-width:1.47px;"/>
      </g>
      <g transform="matrix(0.888889,0,0,1,22.2222,0)">
        <path d="M200,200L380,200" style="fill:none;stroke:#4FD8E8;stroke-width:1.47px;"/>
      </g>
      <path d="M200,200L144,256" style="fill:none;stroke:#4FD8E8;stroke-width:1.39px;"/>
      <g transform="matrix(1,0,0,1,44.4278,-3.83467)">
        <text x="85.45px" y="276.835px" style="font-family:'Segoe UI', 'Arial', sans-serif;font-size:16.667px;">x</text>
      </g>
      <g transform="matrix(1,0,0,1,325.015,178.104)">
        <text x="44.798px" y="24.388px" style="font-family:'Segoe UI', 'Arial', sans-serif;font-size:16.667px;">y</text>
      </g>
      <g transform="matrix(1,0,0,1,-154.419,-15.4671)">
        <text x="350.444px" y="45.467px" style="font-family:'Segoe UI', 'Arial', sans-serif;font-size:16.667px;">z</text>
      </g>
    </g>
    <!-- H-gate rotation arc: z-axis rotating down to x-axis -->
    <g fill="#8B6BE0">
      <g transform="matrix(2.19239,0.558977,-0.417551,1.6377,-144.472,-264.183)">
        <g transform="matrix(0.428282,-0.146181,0.109196,0.573343,90.7222,130.349)">
          <path d="M163.401,268.738L144,255.848L165.952,248.062L163.401,268.738Z"/>
          <path d="M200.575,40.066C241.716,50.555 262.768,107.504 247.558,167.159C234.19,219.592 197.229,256.777 160.541,257.89" style="fill:none;stroke:#8B6BE0;stroke-width:6.94px;"/>
        </g>
      </g>
    </g>
  </svg>

  <!-- ============ MATRIX REPRESENTATION (hand-authored math text) ============ -->
  <g transform="translate(2690,1160)">
    <!-- Big parentheses -->
    <path d="M -260,-250 Q -320,10 -260,270" fill="none" stroke="url(#accentGradient)" stroke-width="10" stroke-linecap="round"/>
    <path d="M 240,-250 Q 300,10 240,270" fill="none" stroke="url(#accentGradient)" stroke-width="10" stroke-linecap="round"/>

    <!-- Row 1: 1/sqrt2   1/sqrt2 -->
    <g>
      <text x="-140" y="-190" text-anchor="middle" font-family="Georgia, 'Times New Roman', serif" font-size="62" fill="#F5F6FA">1</text>
      <line x1="-178" y1="-160" x2="-102" y2="-160" stroke="#F5F6FA" stroke-width="5"/>
      <text x="-140" y="-95" text-anchor="middle" font-family="Georgia, 'Times New Roman', serif" font-size="54" fill="#F5F6FA">&#8730;2</text>

      <text x="140" y="-190" text-anchor="middle" font-family="Georgia, 'Times New Roman', serif" font-size="62" fill="#F5F6FA">1</text>
      <line x1="102" y1="-160" x2="178" y2="-160" stroke="#F5F6FA" stroke-width="5"/>
      <text x="140" y="-95" text-anchor="middle" font-family="Georgia, 'Times New Roman', serif" font-size="54" fill="#F5F6FA">&#8730;2</text>
    </g>

    <!-- Row 2: 1/sqrt2   -1/sqrt2 -->
    <g>
      <text x="-140" y="90" text-anchor="middle" font-family="Georgia, 'Times New Roman', serif" font-size="62" fill="#F5F6FA">1</text>
      <line x1="-178" y1="120" x2="-102" y2="120" stroke="#F5F6FA" stroke-width="5"/>
      <text x="-140" y="215" text-anchor="middle" font-family="Georgia, 'Times New Roman', serif" font-size="54" fill="#F5F6FA">&#8730;2</text>

      <text x="55" y="130" font-family="Georgia, 'Times New Roman', serif" font-size="62" fill="#F5F6FA">&#8722;</text>
      <text x="180" y="90" text-anchor="middle" font-family="Georgia, 'Times New Roman', serif" font-size="62" fill="#F5F6FA">1</text>
      <line x1="142" y1="120" x2="218" y2="120" stroke="#F5F6FA" stroke-width="5"/>
      <text x="180" y="215" text-anchor="middle" font-family="Georgia, 'Times New Roman', serif" font-size="54" fill="#F5F6FA">&#8730;2</text>
    </g>

    <!-- Subscript H -->
    <text x="320" y="300" font-family="Georgia, 'Times New Roman', serif" font-size="48" font-style="italic" fill="#8B6BE0">H</text>
  </g>

  
  </g>

  <!-- ============ FOOTER ============ -->
  <line x1="160" y1="2000" x2="3680" y2="2000" stroke="#2C3560" stroke-width="2"/>

  <text x="160" y="2065" font-family="Segoe UI, Calibri, Arial, sans-serif" font-size="45" fill="#7C86A8">EUMaster4HPC Summer School 2026</text>
  <text x="1920" y="2065" text-anchor="middle" font-family="Segoe UI, Calibri, Arial, sans-serif" font-size="45" fill="#7C86A8">Microsoft &#8226; The Cronos Group</text>

  <text x="3680" y="2065" text-anchor="end" font-family="Segoe UI, Calibri, Arial, sans-serif"
        font-size="45" fill="#7C86A8">37</text>

</svg>
