<?xml version="1.0" encoding="UTF-8" standalone="no"?>
<!-- Slide 22: Bit vs Qubit (recolored copy of 01-16_bit-vs-qubit.svg) -->
<svg width="3840" height="2160" viewBox="0 0 3840 2160" xmlns="http://www.w3.org/2000/svg" xmlns:xlink="http://www.w3.org/1999/xlink">

  <defs>
    <linearGradient id="bgGradient" x1="0%" y1="0%" x2="100%" y2="100%">
      <stop offset="0%"   stop-color="#0B0F1E"/>
      <stop offset="55%"  stop-color="#0F1530"/>
      <stop offset="100%" stop-color="#151B3B"/>
    </linearGradient>

    <radialGradient id="glowCyan" cx="50%" cy="50%" r="50%">
      <stop offset="0%"   stop-color="#4FD8E8" stop-opacity="0.35"/>
      <stop offset="100%" stop-color="#4FD8E8" stop-opacity="0"/>
    </radialGradient>
    <radialGradient id="glowPurple" cx="50%" cy="50%" r="50%">
      <stop offset="0%"   stop-color="#8B6BE0" stop-opacity="0.30"/>
      <stop offset="100%" stop-color="#8B6BE0" stop-opacity="0"/>
    </radialGradient>

    <linearGradient id="accentGradient" x1="0%" y1="0%" x2="100%" y2="0%">
      <stop offset="0%"   stop-color="#3FD0E0"/>
      <stop offset="100%" stop-color="#8B6BE0"/>
    </linearGradient>
  </defs>

  <!-- ============ BACKGROUND ============ -->
  <rect x="0" y="0" width="3840" height="2160" fill="url(#bgGradient)"/>

  <!-- Subtle circuit-board style grid lines (very low opacity) -->
  <g stroke="#4FD8E8" stroke-width="1.5" opacity="0.06">
    <line x1="0" y1="360"  x2="3840" y2="360"/>
    <line x1="0" y1="720"  x2="3840" y2="720"/>
    <line x1="0" y1="1080" x2="3840" y2="1080"/>
    <line x1="0" y1="1440" x2="3840" y2="1440"/>
    <line x1="0" y1="1800" x2="3840" y2="1800"/>
    <line x1="640"  y1="0" x2="640"  y2="2160"/>
    <line x1="1280" y1="0" x2="1280" y2="2160"/>
    <line x1="1920" y1="0" x2="1920" y2="2160"/>
    <line x1="2560" y1="0" x2="2560" y2="2160"/>
    <line x1="3200" y1="0" x2="3200" y2="2160"/>
  </g>

  <!-- Decorative glows -->
  <circle cx="3450" cy="260" r="520" fill="url(#glowCyan)"/>
  <circle cx="420" cy="1950" r="560" fill="url(#glowPurple)"/>

  <!-- ============ HEADER / EYEBROW ============ -->
  <text x="160" y="200" font-family="Segoe UI, Calibri, Arial, sans-serif" font-size="63"
        letter-spacing="9" fill="#4FD8E8" font-weight="600">BIT VS QUBIT</text>

  <!-- Accent rule -->
  <rect x="160" y="250" width="330" height="12" rx="6" fill="url(#accentGradient)"/>

  <!-- ============ BIT VS QUBIT DIAGRAM, recolored copy ============ -->
  <svg x="720" y="560" width="2400" height="1200" viewBox="0 0 400 200" xmlns="http://www.w3.org/2000/svg">
    <g fill="#4FD8E8">
      <g transform="matrix(1,0,0,1,50,0)">
        <rect x="50" y="50" width="50" height="100" style="fill:#182449;stroke:#4FD8E8;stroke-width:1px;"/>
      </g>
      <g transform="matrix(1,0,0,1,0,25)">
        <circle cx="325" cy="75" r="25" style="fill:#182449;stroke:#4FD8E8;stroke-width:1px;"/>
      </g>
      <path d="M125,70L125,130" style="fill:none;stroke:#4FD8E8;stroke-width:4.17px;"/>
      <g transform="matrix(1,0,0,0.823529,0,12.3529)">
        <path d="M140,74.25C140,71.904 138.432,70 136.5,70L113.5,70C111.568,70 110,71.904 110,74.25L110,82.75C110,85.096 111.568,87 113.5,87L136.5,87C138.432,87 140,85.096 140,82.75L140,74.25Z" style="fill:#0F1530;stroke:#4FD8E8;stroke-width:4.55px;"/>
      </g>
      <path d="M114,74L136,74" style="fill:none;stroke:#4FD8E8;stroke-width:0.69px;"/>
      <g transform="matrix(1,0,0,1,0,3)">
        <path d="M114,74L136,74" style="fill:none;stroke:#4FD8E8;stroke-width:0.69px;"/>
      </g>
      <g transform="matrix(1,0,0,1,0,6)">
        <path d="M114,74L136,74" style="fill:none;stroke:#4FD8E8;stroke-width:0.69px;"/>
      </g>
      <g transform="matrix(1,0,0,1,8.64253,8.40076)">
        <text x="111.91px" y="33.599px" style="font-family:'Segoe UI', 'Arial', sans-serif;font-weight:700;font-size:16.667px;">0</text>
      </g>
      <g transform="matrix(1,0,0,1,204.642,25.4008)">
        <text x="111.91px" y="33.599px" style="font-family:'Segoe UI', 'Arial', sans-serif;font-weight:700;font-size:16.667px;">0</text>
      </g>
      <g transform="matrix(1,0,0,1,8.39806,134.401)">
        <text x="111.91px" y="33.599px" style="font-family:'Segoe UI', 'Arial', sans-serif;font-weight:700;font-size:16.667px;">1</text>
      </g>
      <g transform="matrix(1,0,0,1,206.771,117.401)">
        <text x="111.91px" y="33.599px" style="font-family:'Segoe UI', 'Arial', sans-serif;font-weight:700;font-size:16.667px;">1</text>
      </g>
    </g>
    <g fill="#8B6BE0">
      <path d="M341.736,95.697L350,100L341.599,104.029C343.717,101.981 343.785,97.814 341.736,95.697Z"/>
      <path d="M325,100C324.96,99.682 335.915,99.785 343.334,99.891" style="fill:none;stroke:#8B6BE0;stroke-width:2.78px;"/>
    </g>
  </svg>

  <!-- Captions -->
  <text x="1470" y="1900" text-anchor="middle" font-family="Segoe UI, Calibri, Arial, sans-serif" font-size="80"
        font-weight="600" fill="#F5F6FA">Bit</text>
  <text x="2670" y="1900" text-anchor="middle" font-family="Segoe UI, Calibri, Arial, sans-serif" font-size="80"
        font-weight="600" fill="url(#accentGradient)">Qubit</text>

  <!-- ============ FOOTER ============ -->
  <line x1="160" y1="2000" x2="3680" y2="2000" stroke="#2C3560" stroke-width="2"/>

  <text x="160" y="2065" font-family="Segoe UI, Calibri, Arial, sans-serif" font-size="45" fill="#7C86A8">EUMaster4HPC Summer School 2026</text>
  <text x="1920" y="2065" text-anchor="middle" font-family="Segoe UI, Calibri, Arial, sans-serif" font-size="45" fill="#7C86A8">Microsoft &#8226; The Cronos Group</text>

  <text x="3680" y="2065" text-anchor="end" font-family="Segoe UI, Calibri, Arial, sans-serif"
        font-size="45" fill="#7C86A8">22</text>

</svg>
