<?xml version="1.0" encoding="UTF-8" standalone="no"?>
<!-- Slide 13: Entangled electrons after measurement (recolored copy of 01-15_electron-entangled-after-measurement.svg) -->
<svg width="3840" height="2160" viewBox="0 0 3840 2160" xmlns="http://www.w3.org/2000/svg" xmlns:xlink="http://www.w3.org/1999/xlink">

  <defs>
    <linearGradient id="bgGradient" x1="0%" y1="0%" x2="100%" y2="100%">
      <stop offset="0%"   stop-color="#0B0F1E"/>
      <stop offset="55%"  stop-color="#0F1530"/>
      <stop offset="100%" stop-color="#151B3B"/>
    </linearGradient>

    <radialGradient id="glowCyan" cx="50%" cy="50%" r="50%">
      <stop offset="0%"   stop-color="#4FD8E8" stop-opacity="0.35"/>
      <stop offset="100%" stop-color="#4FD8E8" stop-opacity="0"/>
    </radialGradient>
    <radialGradient id="glowPurple" cx="50%" cy="50%" r="50%">
      <stop offset="0%"   stop-color="#8B6BE0" stop-opacity="0.30"/>
      <stop offset="100%" stop-color="#8B6BE0" stop-opacity="0"/>
    </radialGradient>

    <linearGradient id="accentGradient" x1="0%" y1="0%" x2="100%" y2="0%">
      <stop offset="0%"   stop-color="#3FD0E0"/>
      <stop offset="100%" stop-color="#8B6BE0"/>
    </linearGradient>
  </defs>

  <!-- ============ BACKGROUND ============ -->
  <rect x="0" y="0" width="3840" height="2160" fill="url(#bgGradient)"/>

  <!-- Subtle circuit-board style grid lines (very low opacity) -->
  <g stroke="#4FD8E8" stroke-width="1.5" opacity="0.06">
    <line x1="0" y1="360"  x2="3840" y2="360"/>
    <line x1="0" y1="720"  x2="3840" y2="720"/>
    <line x1="0" y1="1080" x2="3840" y2="1080"/>
    <line x1="0" y1="1440" x2="3840" y2="1440"/>
    <line x1="0" y1="1800" x2="3840" y2="1800"/>
    <line x1="640"  y1="0" x2="640"  y2="2160"/>
    <line x1="1280" y1="0" x2="1280" y2="2160"/>
    <line x1="1920" y1="0" x2="1920" y2="2160"/>
    <line x1="2560" y1="0" x2="2560" y2="2160"/>
    <line x1="3200" y1="0" x2="3200" y2="2160"/>
  </g>

  <!-- Decorative glows -->
  <circle cx="3450" cy="260" r="520" fill="url(#glowCyan)"/>
  <circle cx="420" cy="1950" r="560" fill="url(#glowPurple)"/>

  <!-- ============ HEADER / EYEBROW ============ -->
  <text x="160" y="200" font-family="Segoe UI, Calibri, Arial, sans-serif" font-size="63"
        letter-spacing="9" fill="#4FD8E8" font-weight="600">ENTANGLED ELECTRONS</text>

  <!-- Accent rule -->
  <rect x="160" y="250" width="330" height="12" rx="6" fill="url(#accentGradient)"/>

  <!-- ============ ENTANGLED ELECTRONS (centered, recolored copy) ============ -->
  <svg x="720" y="430" width="2400" height="1600" viewBox="0 0 300 200" xmlns="http://www.w3.org/2000/svg">
    <g fill="#4FD8E8">
      <g transform="matrix(1.03448,0,0,1,12.2414,-0.5)">
        <path d="M22,100C22,97.24 34.994,95 51,95C67.006,95 80,97.24 80,100" style="fill:none;stroke:#4FD8E8;stroke-width:1.37px;"/>
      </g>
      <g transform="matrix(1,0,0,0.795,-180,19.75)">
        <g transform="matrix(1,-0,-0,1.25786,180,-24.8428)">
          <path d="M59.792,69.917L65,59.5L70.208,69.917C67.604,67.312 62.396,67.312 59.792,69.917Z"/>
          <path d="M65,139L65,67.833" style="fill:none;stroke:#4FD8E8;stroke-width:1.39px;"/>
        </g>
      </g>
      <g transform="matrix(1,0,0,1,5,-10.5)">
        <circle cx="60" cy="110" r="20" style="fill:#182449;stroke:#4FD8E8;stroke-width:1.39px;"/>
      </g>
      <g transform="matrix(1.03448,0,0,1,12.2414,-0.5)">
        <g transform="matrix(0.966667,-0,-0,1,-11.8333,0.5)">
          <path d="M48.529,106.852L55,104.215L49.008,100.62C50.446,102.298 50.206,105.413 48.529,106.852Z"/>
          <path d="M50.015,103.832C41.042,102.967 35,101.35 35,99.5" style="fill:none;stroke:#4FD8E8;stroke-width:1.39px;"/>
        </g>
      </g>
      <g transform="matrix(1.03448,0,0,1,12.2414,-0.5)">
        <path d="M80,100C80,102.175 71.926,104.028 60.667,104.715" style="fill:none;stroke:#4FD8E8;stroke-width:1.37px;"/>
      </g>
      <g transform="matrix(1.03448,0,0,1,182.241,-2.84217e-14)">
        <path d="M22,100C22,97.24 34.994,95 51,95C67.006,95 80,97.24 80,100" style="fill:none;stroke:#4FD8E8;stroke-width:1.37px;"/>
      </g>
      <g transform="matrix(1,0,0,0.795,-20,20.75)">
        <g transform="matrix(1,-0,-0,1.25786,20,-26.1006)">
          <path d="M240.208,129.583L235,140L229.792,129.583C232.396,132.187 237.604,132.187 240.208,129.583Z"/>
          <path d="M235,60.5L235,131.667" style="fill:none;stroke:#4FD8E8;stroke-width:1.39px;"/>
        </g>
      </g>
      <g transform="matrix(1,0,0,1,175,-10)">
        <circle cx="60" cy="110" r="20" style="fill:#182449;stroke:#4FD8E8;stroke-width:1.39px;"/>
      </g>
      <g transform="matrix(1.03448,0,0,1,182.241,-2.84217e-14)">
        <path d="M41.333,104.715C30.074,104.028 22,102.175 22,100" style="fill:none;stroke:#4FD8E8;stroke-width:1.37px;"/>
      </g>
      <g transform="matrix(1.03448,0,0,1,182.241,-2.84217e-14)">
        <g transform="matrix(0.966667,-0,-0,1,-176.167,2.84217e-14)">
          <path d="M251.471,107.352L245,104.715L250.992,101.12C249.554,102.798 249.794,105.913 251.471,107.352Z"/>
          <path d="M265,100C265,101.85 258.958,103.467 249.985,104.332" style="fill:none;stroke:#4FD8E8;stroke-width:1.39px;"/>
        </g>
      </g>
      <path d="M149.853,100C127.753,77.508 101.756,39.999 65,39.999C32.241,39.999 4.999,67.241 4.999,100C4.999,132.759 32.241,160.001 65,160.001C101.756,160.001 127.753,122.492 149.853,100ZM150.147,100C165.72,84.172 179.355,65.771 197.828,53.032C205.101,48.016 213.028,43.745 221.694,41.651C230.251,39.584 238.401,39.469 246.984,41.234C254.623,42.804 261.935,45.974 268.381,50.346C303.164,73.938 303.164,126.062 268.381,149.654C261.935,154.026 254.623,157.196 246.984,158.766C238.401,160.531 230.251,160.416 221.694,158.349C213.028,156.255 205.101,151.984 197.828,146.968C179.355,134.229 165.72,115.828 150.147,100Z" style="fill:none;stroke:#4FD8E8;stroke-width:6.94px;"/>
      <path d="M149.853,100C127.753,77.508 101.756,39.999 65,39.999C32.241,39.999 4.999,67.241 4.999,100C4.999,132.759 32.241,160.001 65,160.001C101.756,160.001 127.753,122.492 149.853,100ZM150.147,100C165.72,84.172 179.355,65.771 197.828,53.032C205.101,48.016 213.028,43.745 221.694,41.651C230.251,39.584 238.401,39.469 246.984,41.234C254.623,42.804 261.935,45.974 268.381,50.346C303.164,73.938 303.164,126.062 268.381,149.654C261.935,154.026 254.623,157.196 246.984,158.766C238.401,160.531 230.251,160.416 221.694,158.349C213.028,156.255 205.101,151.984 197.828,146.968C179.355,134.229 165.72,115.828 150.147,100Z" style="fill:none;stroke:#8B6BE0;stroke-width:1.39px;"/>
    </g>
  </svg>

  <!-- ============ FOOTER ============ -->
  <line x1="160" y1="2000" x2="3680" y2="2000" stroke="#2C3560" stroke-width="2"/>

  <text x="160" y="2065" font-family="Segoe UI, Calibri, Arial, sans-serif" font-size="45" fill="#7C86A8">EUMaster4HPC Summer School 2026</text>
  <text x="1920" y="2065" text-anchor="middle" font-family="Segoe UI, Calibri, Arial, sans-serif" font-size="45" fill="#7C86A8">Microsoft &#8226; The Cronos Group</text>

  <text x="3680" y="2065" text-anchor="end" font-family="Segoe UI, Calibri, Arial, sans-serif"
        font-size="45" fill="#7C86A8">13</text>

</svg>
