<?xml version="1.0" encoding="UTF-8" standalone="no"?>
<!-- Slide 12: Schrodinger's cat - alive and dead states side by side (recolored copies of 01-13_schrodingers-cat-alive.svg and 01-13_schrodingers-cat-dead.svg) -->
<svg width="3840" height="2160" viewBox="0 0 3840 2160" xmlns="http://www.w3.org/2000/svg" xmlns:xlink="http://www.w3.org/1999/xlink">

  <defs>
    <linearGradient id="bgGradient" x1="0%" y1="0%" x2="100%" y2="100%">
      <stop offset="0%"   stop-color="#0B0F1E"/>
      <stop offset="55%"  stop-color="#0F1530"/>
      <stop offset="100%" stop-color="#151B3B"/>
    </linearGradient>

    <radialGradient id="glowCyan" cx="50%" cy="50%" r="50%">
      <stop offset="0%"   stop-color="#4FD8E8" stop-opacity="0.35"/>
      <stop offset="100%" stop-color="#4FD8E8" stop-opacity="0"/>
    </radialGradient>
    <radialGradient id="glowPurple" cx="50%" cy="50%" r="50%">
      <stop offset="0%"   stop-color="#8B6BE0" stop-opacity="0.30"/>
      <stop offset="100%" stop-color="#8B6BE0" stop-opacity="0"/>
    </radialGradient>

    <linearGradient id="accentGradient" x1="0%" y1="0%" x2="100%" y2="0%">
      <stop offset="0%"   stop-color="#3FD0E0"/>
      <stop offset="100%" stop-color="#8B6BE0"/>
    </linearGradient>
  </defs>

  <!-- ============ BACKGROUND ============ -->
  <rect x="0" y="0" width="3840" height="2160" fill="url(#bgGradient)"/>

  <!-- Subtle circuit-board style grid lines (very low opacity) -->
  <g stroke="#4FD8E8" stroke-width="1.5" opacity="0.06">
    <line x1="0" y1="360"  x2="3840" y2="360"/>
    <line x1="0" y1="720"  x2="3840" y2="720"/>
    <line x1="0" y1="1080" x2="3840" y2="1080"/>
    <line x1="0" y1="1440" x2="3840" y2="1440"/>
    <line x1="0" y1="1800" x2="3840" y2="1800"/>
    <line x1="640"  y1="0" x2="640"  y2="2160"/>
    <line x1="1280" y1="0" x2="1280" y2="2160"/>
    <line x1="1920" y1="0" x2="1920" y2="2160"/>
    <line x1="2560" y1="0" x2="2560" y2="2160"/>
    <line x1="3200" y1="0" x2="3200" y2="2160"/>
  </g>

  <!-- Decorative glows -->
  <circle cx="3450" cy="260" r="520" fill="url(#glowCyan)"/>
  <circle cx="420" cy="1950" r="560" fill="url(#glowPurple)"/>

  <!-- ============ HEADER / EYEBROW ============ -->
  <text x="160" y="200" font-family="Segoe UI, Calibri, Arial, sans-serif" font-size="63"
        letter-spacing="9" fill="#4FD8E8" font-weight="600">SCHR&#214;DINGER'S CAT</text>

  <!-- Accent rule -->
  <rect x="160" y="250" width="330" height="12" rx="6" fill="url(#accentGradient)"/>

  <!-- ============ SCHRODINGER'S CAT: ALIVE + DEAD, SIDE BY SIDE ============ -->
  <svg x="400" y="560" width="1450" height="980" viewBox="0 0 300 200" xmlns="http://www.w3.org/2000/svg">
    <g fill="#4FD8E8">

    <g transform="matrix(1.55556,0,0,1,-5.55556,0)">
        <rect x="10" y="10" width="180" height="180" style="fill:none;stroke:#4FD8E8;stroke-width:0.53px;"/>
    </g>
    <g>
        <g transform="matrix(1,0,0,1,-2.5,-6.5)">
            <ellipse cx="67.5" cy="185" rx="5" ry="3" style="fill:#182449;stroke:#4FD8E8;stroke-width:0.69px;"/>
        </g>
        <g transform="matrix(1,0,0,1,7,-5.5)">
            <ellipse cx="67.5" cy="185" rx="5" ry="3" style="fill:#182449;stroke:#4FD8E8;stroke-width:0.69px;"/>
        </g>
        <g transform="matrix(1,0,0,1,17,-5)">
            <ellipse cx="67.5" cy="185" rx="5" ry="3" style="fill:#182449;stroke:#4FD8E8;stroke-width:0.69px;"/>
        </g>
        <g transform="matrix(-1,0,0,1,192.5,-6.5)">
            <ellipse cx="67.5" cy="185" rx="5" ry="3" style="fill:#182449;stroke:#4FD8E8;stroke-width:0.69px;"/>
        </g>
        <g transform="matrix(-1,0,0,1,183,-5.5)">
            <ellipse cx="67.5" cy="185" rx="5" ry="3" style="fill:#182449;stroke:#4FD8E8;stroke-width:0.69px;"/>
        </g>
        <g transform="matrix(-1,0,0,1,173,-5)">
            <ellipse cx="67.5" cy="185" rx="5" ry="3" style="fill:#182449;stroke:#4FD8E8;stroke-width:0.69px;"/>
        </g>
        <path d="M77.648,41.386C82.989,39.488 88.851,39 95,39C101.149,39 107.011,39.488 112.352,41.386L118.5,20L128.723,55.559C129.519,56.931 130.278,58.414 131,60.015C136.65,72.551 140,88.129 140,105C140,126.721 148.866,156.298 140,170C131.97,182.41 106.803,180 95,180C83.197,180 58.03,182.41 50,170C41.134,156.298 50,126.721 50,105C50,88.129 53.35,72.551 59,60.015C59.722,58.414 60.481,56.931 61.277,55.559L71.5,20L77.648,41.386Z" style="fill:#182449;stroke:#4FD8E8;stroke-width:0.69px;"/>
        <path d="M80,66C80,66 82.333,62 85,62C87.667,62 90,66 90,66" style="fill:none;stroke:#4FD8E8;stroke-width:0.69px;"/>
        <g transform="matrix(1,0,0,-1,3,160)">
            <path d="M92,76L96,82L88,82L92,76Z" style="fill:#182449;stroke:#4FD8E8;stroke-width:0.69px;"/>
        </g>
        <path d="M95,84L95,87" style="fill:none;stroke:#4FD8E8;stroke-width:0.69px;"/>
        <path d="M95,87L90,87C86.333,87 85,84 85,84" style="fill:none;stroke:#4FD8E8;stroke-width:0.69px;"/>
        <g transform="matrix(1,0,0,1,2,-3)">
            <path d="M80,76C66.667,72.333 53.333,68.667 40,65" style="fill:none;stroke:#4FD8E8;stroke-width:0.69px;"/>
        </g>
        <g transform="matrix(1,0,0,1,2,-3)">
            <path d="M80,80L40,80" style="fill:none;stroke:#4FD8E8;stroke-width:0.69px;"/>
        </g>
        <g transform="matrix(1,0,0,1,2,-3)">
            <path d="M80,84C66.667,87.667 53.333,91.333 40,95" style="fill:none;stroke:#4FD8E8;stroke-width:0.69px;"/>
        </g>
        <path d="M80,66C80,66 82.333,62 85,62C87.667,62 90,66 90,66" style="fill:none;stroke:#4FD8E8;stroke-width:0.69px;"/>
        <path d="M95,87L90,87C86.333,87 85,84 85,84" style="fill:none;stroke:#4FD8E8;stroke-width:0.69px;"/>
        <g transform="matrix(1,0,0,1,2,-3)">
            <path d="M80,76C66.667,72.333 53.333,68.667 40,65" style="fill:none;stroke:#4FD8E8;stroke-width:0.69px;"/>
        </g>
        <g transform="matrix(1,0,0,1,2,-3)">
            <path d="M80,80L40,80" style="fill:none;stroke:#4FD8E8;stroke-width:0.69px;"/>
        </g>
        <g transform="matrix(1,0,0,1,2,-3)">
            <path d="M80,84C66.667,87.667 53.333,91.333 40,95" style="fill:none;stroke:#4FD8E8;stroke-width:0.69px;"/>
        </g>
        <g transform="matrix(-1,0,0,1,190,0)">
            <path d="M80,66C80,66 82.333,62 85,62C87.667,62 90,66 90,66" style="fill:none;stroke:#4FD8E8;stroke-width:0.69px;"/>
        </g>
        <g transform="matrix(-1,0,0,1,190,0)">
            <path d="M95,87L90,87C86.333,87 85,84 85,84" style="fill:none;stroke:#4FD8E8;stroke-width:0.69px;"/>
        </g>
        <g transform="matrix(-1,0,0,1,188,-3)">
            <path d="M80,76C66.667,72.333 53.333,68.667 40,65" style="fill:none;stroke:#4FD8E8;stroke-width:0.69px;"/>
        </g>
        <g transform="matrix(-1,0,0,1,188,-3)">
            <path d="M80,80L40,80" style="fill:none;stroke:#4FD8E8;stroke-width:0.69px;"/>
        </g>
        <g transform="matrix(-1,0,0,1,188,-3)">
            <path d="M80,84C66.667,87.667 53.333,91.333 40,95" style="fill:none;stroke:#4FD8E8;stroke-width:0.69px;"/>
        </g>
    </g>
    <g>
        <g transform="matrix(1.06667,0,0,1,-4.06667,43)">
            <rect x="211" y="98" width="7.5" height="3" style="stroke:#4FD8E8;stroke-width:0.67px;"/>
        </g>
        <g transform="matrix(1,0,0,1,10,43)">
            <path d="M220,110.855C221.667,115.022 230,118.474 230,125C230,133.279 223.279,140 215,140C206.721,140 200,133.279 200,125C200,118.474 208.333,115.022 210,110.855C211.344,107.495 210,100 210,100L220,100C220,100 218.656,107.495 220,110.855Z" style="fill:#182449;stroke:#4FD8E8;stroke-width:0.69px;"/>
        </g>
        <g transform="matrix(1,0,0,1,10,43)">
            <path d="M220,127L217,127L217,130L213,130L213,127L210,127L210,124.968C210.017,122.223 212.251,120 215,120C217.76,120 220,122.24 220,125L220,127Z" style="fill:#182449;"/>
            <clipPath id="_clipAlive">
                <path d="M220,127L217,127L217,130L213,130L213,127L210,127L210,124.968C210.017,122.223 212.251,120 215,120C217.76,120 220,122.24 220,125L220,127Z"/>
            </clipPath>
            <g clip-path="url(#_clipAlive)">
                <circle cx="213" cy="123" r="1" style="fill:#182449;stroke:#4FD8E8;stroke-width:0.69px;"/>
                <g transform="matrix(1,0,0,1,4,0)">
                    <circle cx="213" cy="123" r="1" style="fill:#182449;stroke:#4FD8E8;stroke-width:0.69px;"/>
                </g>
            </g>
            <path d="M220,127L217,127L217,130L213,130L213,127L210,127L210,124.968C210.017,122.223 212.251,120 215,120C217.76,120 220,122.24 220,125L220,127Z" style="fill:none;stroke:#4FD8E8;stroke-width:0.69px;"/>
        </g>
        <g transform="matrix(1,0,0,1,10,43)">
            <path d="M218,121C218.667,120.333 219.333,119.667 220,119" style="fill:none;stroke:#4FD8E8;stroke-width:0.69px;"/>
        </g>
        <g transform="matrix(1,0,0,1,10,43)">
            <path d="M210,127C209.333,127.667 208.667,128.333 208,129" style="fill:none;stroke:#4FD8E8;stroke-width:0.69px;"/>
        </g>
        <g transform="matrix(1,0,0,1,10,43)">
            <path d="M220,127C220.667,127.667 221.333,128.333 222,129" style="fill:none;stroke:#4FD8E8;stroke-width:0.69px;"/>
        </g>
        <g transform="matrix(1,0,0,1,10,43)">
            <path d="M212,121C211.333,120.333 210.667,119.667 210,119" style="fill:none;stroke:#4FD8E8;stroke-width:0.69px;"/>
        </g>
        <g transform="matrix(1,0,0,1,10,43)">
            <path d="M210,119C210.333,118.333 210.667,117.667 211,117" style="fill:none;stroke:#4FD8E8;stroke-width:0.69px;"/>
        </g>
        <g transform="matrix(1,0,0,1,10,43)">
            <path d="M210,119C209.333,119.333 208.667,119.667 208,120" style="fill:none;stroke:#4FD8E8;stroke-width:0.69px;"/>
        </g>
        <g transform="matrix(1,0,0,1,10,43)">
            <path d="M220,119C219.667,118.333 219.333,117.667 219,117" style="fill:none;stroke:#4FD8E8;stroke-width:0.69px;"/>
        </g>
        <g transform="matrix(1,0,0,1,10,43)">
            <path d="M220,119C220.667,119.333 221.333,119.667 222,120" style="fill:none;stroke:#4FD8E8;stroke-width:0.69px;"/>
        </g>
        <g transform="matrix(1,0,0,1,10,43)">
            <path d="M222,129C222.667,128.667 223.333,128.333 224,128" style="fill:none;stroke:#4FD8E8;stroke-width:0.69px;"/>
        </g>
        <g transform="matrix(1,0,0,1,10,43)">
            <path d="M222,129C221.667,129.667 221.333,130.333 221,131" style="fill:none;stroke:#4FD8E8;stroke-width:0.69px;"/>
        </g>
        <g transform="matrix(1,0,0,1,10,43)">
            <path d="M208,129C208.333,129.667 208.667,130.333 209,131" style="fill:none;stroke:#4FD8E8;stroke-width:0.69px;"/>
        </g>
        <g transform="matrix(1,0,0,1,10,43)">
            <path d="M208,129C207.333,128.667 206.667,128.333 206,128" style="fill:none;stroke:#4FD8E8;stroke-width:0.69px;"/>
        </g>
        <g transform="matrix(1,0,0,1,10,43)">
            <path d="M214,128L214,130" style="fill:none;stroke:#4FD8E8;stroke-width:0.69px;"/>
        </g>
        <g transform="matrix(1,0,0,1,10,43)">
            <path d="M215,128L215,130" style="fill:none;stroke:#4FD8E8;stroke-width:0.69px;"/>
        </g>
        <g transform="matrix(1,0,0,1,10,43)">
            <path d="M216,128C216,128.667 216,129.333 216,130" style="fill:none;stroke:#4FD8E8;stroke-width:0.69px;"/>
        </g>
    </g>
    <g>
        <g transform="matrix(1,0,0,1,64,30)">
            <path d="M211.653,52.503L215.51,58.345C213.93,59.391 212.035,60 210,60C207.965,60 206.07,59.391 204.49,58.345L208.347,52.503C208.821,52.817 209.389,53 210,53C210.611,53 211.179,52.817 211.653,52.503ZM205.527,41.055L208.658,47.317C207.675,47.809 207,48.826 207,50C207,50.06 207.002,50.12 207.005,50.18L200.018,50.599C200.006,50.4 200,50.201 200,50C200,46.088 202.251,42.698 205.527,41.055ZM214.473,41.055C217.749,42.698 220,46.088 220,50C220,50.201 219.994,50.4 219.982,50.599L212.995,50.18C212.998,50.12 213,50.06 213,50C213,48.826 212.325,47.809 211.342,47.317L214.473,41.055Z" style="stroke:#4FD8E8;stroke-width:0.69px;"/>
        </g>
        <g transform="matrix(1,0,0,1,64,30)">
            <ellipse cx="210" cy="50.026" rx="1.5" ry="1.526"/>
        </g>
        <g transform="matrix(1.04348,0,0,1.14286,54.3478,21.1429)">
            <ellipse cx="210.5" cy="51.5" rx="11.5" ry="10.5" style="fill:none;stroke:#4FD8E8;stroke-width:0.63px;"/>
        </g>
    </g>
    <g>
        <g transform="matrix(0.554187,-0.646937,0.759448,0.650568,42.6551,229.047)">
            <path d="M249.391,80C249.391,80 249.695,75.865 248.217,75C246.652,74.083 240,74.5 240,74.5L240,70C240,70 257.5,69 262,70C264.541,70.565 267,76 267,76C267,76 262.023,74.246 260.543,74C258.275,73.624 256.603,74.569 256.435,75.5C256.247,76.537 256.435,80 256.435,80L249.391,80Z" style="fill:#182449;stroke:#4FD8E8;stroke-width:0.75px;"/>
        </g>
        <g transform="matrix(0.650568,-0.759448,0.759448,0.650568,16.9215,259.087)">
            <path d="M250,110C248.667,105 250.667,85 252,80C252.515,78.068 257.485,78.068 258,80C259.333,85 261.333,105 260,110C259.141,113.221 250.859,113.221 250,110Z" style="fill:#8B6BE0;stroke:#4FD8E8;stroke-width:0.69px;"/>
        </g>
        <g transform="matrix(0.406605,-0.474655,0.596709,0.511161,89.6836,197.644)">
            <rect x="236" y="69" width="4" height="7" style="fill:#182449;stroke:#4FD8E8;stroke-width:0.98px;"/>
        </g>
    </g>
    <path d="M268,91C268.05,90.853 246,115 246,115" style="fill:none;stroke:#4FD8E8;stroke-width:0.35px;"/>

    </g>
  </svg>
  <text x="1125" y="1660" text-anchor="middle" font-family="Segoe UI, Calibri, Arial, sans-serif" font-size="80"
        font-weight="600" fill="url(#accentGradient)">Alive</text>

  <svg x="1990" y="560" width="1450" height="980" viewBox="0 0 300 200" xmlns="http://www.w3.org/2000/svg">
    <g fill="#4FD8E8">

    <g transform="matrix(1.55556,0,0,1,-5.55556,0)">
        <rect x="10" y="10" width="180" height="180" style="fill:none;stroke:#4FD8E8;stroke-width:0.53px;"/>
    </g>
    <g>
        <g transform="matrix(1,0,0,1,-2.5,-6.5)">
            <ellipse cx="67.5" cy="185" rx="5" ry="3" style="fill:#182449;stroke:#4FD8E8;stroke-width:0.69px;"/>
        </g>
        <g transform="matrix(1,0,0,1,7,-5.5)">
            <ellipse cx="67.5" cy="185" rx="5" ry="3" style="fill:#182449;stroke:#4FD8E8;stroke-width:0.69px;"/>
        </g>
        <g transform="matrix(1,0,0,1,17,-5)">
            <ellipse cx="67.5" cy="185" rx="5" ry="3" style="fill:#182449;stroke:#4FD8E8;stroke-width:0.69px;"/>
        </g>
        <g transform="matrix(-1,0,0,1,192.5,-6.5)">
            <ellipse cx="67.5" cy="185" rx="5" ry="3" style="fill:#182449;stroke:#4FD8E8;stroke-width:0.69px;"/>
        </g>
        <g transform="matrix(-1,0,0,1,183,-5.5)">
            <ellipse cx="67.5" cy="185" rx="5" ry="3" style="fill:#182449;stroke:#4FD8E8;stroke-width:0.69px;"/>
        </g>
        <g transform="matrix(-1,0,0,1,173,-5)">
            <ellipse cx="67.5" cy="185" rx="5" ry="3" style="fill:#182449;stroke:#4FD8E8;stroke-width:0.69px;"/>
        </g>
        <path d="M77.648,41.386C82.989,39.488 88.851,39 95,39C101.149,39 107.011,39.488 112.352,41.386L118.5,20L128.723,55.559C129.519,56.931 130.278,58.414 131,60.015C136.65,72.551 140,88.129 140,105C140,126.721 148.866,156.298 140,170C131.97,182.41 106.803,180 95,180C83.197,180 58.03,182.41 50,170C41.134,156.298 50,126.721 50,105C50,88.129 53.35,72.551 59,60.015C59.722,58.414 60.481,56.931 61.277,55.559L71.5,20L77.648,41.386Z" style="fill:#182449;stroke:#4FD8E8;stroke-width:0.69px;"/>
        <path d="M100,66C103.333,64.667 106.667,63.333 110,62" style="fill:none;stroke:#4FD8E8;stroke-width:0.69px;"/>
        <g transform="matrix(1,0,0,-1,3,160)">
            <path d="M92,76L96,82L88,82L92,76Z" style="fill:#182449;stroke:#4FD8E8;stroke-width:0.69px;"/>
        </g>
        <path d="M95,84L95,87" style="fill:none;stroke:#4FD8E8;stroke-width:0.69px;"/>
        <path d="M95,87L100,87C103.667,87 104.5,90 104.5,90" style="fill:none;stroke:#4FD8E8;stroke-width:0.69px;"/>
        <path d="M100,62C103.333,63.333 106.667,64.667 110,66" style="fill:none;stroke:#4FD8E8;stroke-width:0.69px;"/>
        <g transform="matrix(-1,0,0,1,188,-3)">
            <path d="M80,76C72.667,73.983 65.403,71.695 58,69.95C51,68.3 43,69.65 40,77" style="fill:none;stroke:#4FD8E8;stroke-width:0.69px;"/>
        </g>
        <g transform="matrix(-1,0,0,1,188,-3)">
            <path d="M80,80L58,80C48,80 43,83 41,89" style="fill:none;stroke:#4FD8E8;stroke-width:0.69px;"/>
        </g>
        <g transform="matrix(-1,0,0,1,188,-3)">
            <path d="M80,84C72.667,86.017 65.293,87.892 58,90.05C46,93.6 43,99.9 41,103" style="fill:none;stroke:#4FD8E8;stroke-width:0.69px;"/>
        </g>
        <g transform="matrix(-1,0,0,1,190,0)">
            <path d="M100,66C103.333,64.667 106.667,63.333 110,62" style="fill:none;stroke:#4FD8E8;stroke-width:0.69px;"/>
        </g>
        <g transform="matrix(-1,0,0,1,190,0)">
            <path d="M95,84L95,87" style="fill:none;stroke:#4FD8E8;stroke-width:0.69px;"/>
        </g>
        <g transform="matrix(-1,0,0,1,190,0)">
            <path d="M95,87L100,87C103.667,87 104.5,90 104.5,90" style="fill:none;stroke:#4FD8E8;stroke-width:0.69px;"/>
        </g>
        <g transform="matrix(-1,0,0,1,190,0)">
            <path d="M100,62C103.333,63.333 106.667,64.667 110,66" style="fill:none;stroke:#4FD8E8;stroke-width:0.69px;"/>
        </g>
        <g transform="matrix(1,0,0,1,2,-3)">
            <path d="M80,76C72.667,73.983 65.403,71.695 58,69.95C51,68.3 43,69.65 40,77" style="fill:none;stroke:#4FD8E8;stroke-width:0.69px;"/>
        </g>
        <g transform="matrix(1,0,0,1,2,-3)">
            <path d="M80,80L58,80C48,80 43,83 41,89" style="fill:none;stroke:#4FD8E8;stroke-width:0.69px;"/>
        </g>
        <g transform="matrix(1,0,0,1,2,-3)">
            <path d="M80,84C72.667,86.017 65.293,87.892 58,90.05C46,93.6 43,99.9 41,103" style="fill:none;stroke:#4FD8E8;stroke-width:0.69px;"/>
        </g>
    </g>
    <g transform="matrix(-0.337303,-0.941396,0.941396,-0.337303,178.553,410.377)">
        <path d="M220,110.855C221.667,115.022 230,118.474 230,125C230,133.279 223.279,140 215,140C206.721,140 200,133.279 200,125C200,118.474 208.333,115.022 210,110.855C211.344,107.495 210,100 210,100L220,100C220,100 218.656,107.495 220,110.855Z" style="fill:#182449;stroke:#4FD8E8;stroke-width:0.69px;"/>
    </g>
    <g transform="matrix(-0.337303,-0.941396,0.941396,-0.337303,178.553,410.377)">
        <path d="M220,127L217,127L217,130L213,130L213,127L210,127L210,124.968C210.017,122.223 212.251,120 215,120C217.76,120 220,122.24 220,125L220,127Z" style="fill:#182449;"/>
        <clipPath id="_clipDead">
            <path d="M220,127L217,127L217,130L213,130L213,127L210,127L210,124.968C210.017,122.223 212.251,120 215,120C217.76,120 220,122.24 220,125L220,127Z"/>
        </clipPath>
        <g clip-path="url(#_clipDead)">
            <circle cx="213" cy="123" r="1" style="fill:#182449;stroke:#4FD8E8;stroke-width:0.69px;"/>
            <g transform="matrix(1,0,0,1,4,0)">
                <circle cx="213" cy="123" r="1" style="fill:#182449;stroke:#4FD8E8;stroke-width:0.69px;"/>
            </g>
        </g>
        <path d="M220,127L217,127L217,130L213,130L213,127L210,127L210,124.968C210.017,122.223 212.251,120 215,120C217.76,120 220,122.24 220,125L220,127Z" style="fill:none;stroke:#4FD8E8;stroke-width:0.69px;"/>
    </g>
    <g transform="matrix(-0.337303,-0.941396,0.941396,-0.337303,178.553,410.377)">
        <path d="M218,121C218.667,120.333 219.333,119.667 220,119" style="fill:none;stroke:#4FD8E8;stroke-width:0.69px;"/>
    </g>
    <g transform="matrix(-0.337303,-0.941396,0.941396,-0.337303,178.553,410.377)">
        <path d="M210,127C209.333,127.667 208.667,128.333 208,129" style="fill:none;stroke:#4FD8E8;stroke-width:0.69px;"/>
    </g>
    <g transform="matrix(-0.337303,-0.941396,0.941396,-0.337303,178.553,410.377)">
        <path d="M220,127C220.667,127.667 221.333,128.333 222,129" style="fill:none;stroke:#4FD8E8;stroke-width:0.69px;"/>
    </g>
    <g transform="matrix(-0.337303,-0.941396,0.941396,-0.337303,178.553,410.377)">
        <path d="M212,121C211.333,120.333 210.667,119.667 210,119" style="fill:none;stroke:#4FD8E8;stroke-width:0.69px;"/>
    </g>
    <g transform="matrix(-0.337303,-0.941396,0.941396,-0.337303,178.553,410.377)">
        <path d="M210,119C210.333,118.333 210.667,117.667 211,117" style="fill:none;stroke:#4FD8E8;stroke-width:0.69px;"/>
    </g>
    <g transform="matrix(-0.337303,-0.941396,0.941396,-0.337303,178.553,410.377)">
        <path d="M210,119C209.333,119.333 208.667,119.667 208,120" style="fill:none;stroke:#4FD8E8;stroke-width:0.69px;"/>
    </g>
    <g transform="matrix(-0.337303,-0.941396,0.941396,-0.337303,178.553,410.377)">
        <path d="M220,119C219.667,118.333 219.333,117.667 219,117" style="fill:none;stroke:#4FD8E8;stroke-width:0.69px;"/>
    </g>
    <g transform="matrix(-0.337303,-0.941396,0.941396,-0.337303,178.553,410.377)">
        <path d="M220,119C220.667,119.333 221.333,119.667 222,120" style="fill:none;stroke:#4FD8E8;stroke-width:0.69px;"/>
    </g>
    <g transform="matrix(-0.337303,-0.941396,0.941396,-0.337303,178.553,410.377)">
        <path d="M222,129C222.667,128.667 223.333,128.333 224,128" style="fill:none;stroke:#4FD8E8;stroke-width:0.69px;"/>
    </g>
    <g transform="matrix(-0.337303,-0.941396,0.941396,-0.337303,178.553,410.377)">
        <path d="M222,129C221.667,129.667 221.333,130.333 221,131" style="fill:none;stroke:#4FD8E8;stroke-width:0.69px;"/>
    </g>
    <g transform="matrix(-0.337303,-0.941396,0.941396,-0.337303,178.553,410.377)">
        <path d="M208,129C208.333,129.667 208.667,130.333 209,131" style="fill:none;stroke:#4FD8E8;stroke-width:0.69px;"/>
    </g>
    <g transform="matrix(-0.337303,-0.941396,0.941396,-0.337303,178.553,410.377)">
        <path d="M208,129C207.333,128.667 206.667,128.333 206,128" style="fill:none;stroke:#4FD8E8;stroke-width:0.69px;"/>
    </g>
    <g transform="matrix(-0.337303,-0.941396,0.941396,-0.337303,178.553,410.377)">
        <path d="M214,128L214,130" style="fill:none;stroke:#4FD8E8;stroke-width:0.69px;"/>
    </g>
    <g transform="matrix(-0.337303,-0.941396,0.941396,-0.337303,178.553,410.377)">
        <path d="M215,128L215,130" style="fill:none;stroke:#4FD8E8;stroke-width:0.69px;"/>
    </g>
    <g transform="matrix(-0.337303,-0.941396,0.941396,-0.337303,178.553,410.377)">
        <path d="M216,128C216,128.667 216,129.333 216,130" style="fill:none;stroke:#4FD8E8;stroke-width:0.69px;"/>
    </g>
    <g>
        <g transform="matrix(1,0,0,1,64,30)">
            <path d="M211.653,52.503L215.51,58.345C213.93,59.391 212.035,60 210,60C207.965,60 206.07,59.391 204.49,58.345L208.347,52.503C208.821,52.817 209.389,53 210,53C210.611,53 211.179,52.817 211.653,52.503ZM205.527,41.055L208.658,47.317C207.675,47.809 207,48.826 207,50C207,50.06 207.002,50.12 207.005,50.18L200.018,50.599C200.006,50.4 200,50.201 200,50C200,46.088 202.251,42.698 205.527,41.055ZM214.473,41.055C217.749,42.698 220,46.088 220,50C220,50.201 219.994,50.4 219.982,50.599L212.995,50.18C212.998,50.12 213,50.06 213,50C213,48.826 212.325,47.809 211.342,47.317L214.473,41.055Z" style="stroke:#4FD8E8;stroke-width:0.69px;"/>
        </g>
        <g transform="matrix(1,0,0,1,64,30)">
            <ellipse cx="210" cy="50.026" rx="1.5" ry="1.526"/>
        </g>
        <g transform="matrix(1.04348,0,0,1.14286,54.3478,21.1429)">
            <ellipse cx="210.5" cy="51.5" rx="11.5" ry="10.5" style="fill:none;stroke:#4FD8E8;stroke-width:0.63px;"/>
        </g>
    </g>
    <g transform="matrix(0.810832,-0.585279,0.585279,0.810832,-31.171,184.268)">
        <g transform="matrix(0.554187,-0.646937,0.759448,0.650568,42.6551,229.047)">
            <path d="M249.391,80C249.391,80 249.695,75.865 248.217,75C246.652,74.083 240,74.5 240,74.5L240,70C240,70 257.5,69 262,70C264.541,70.565 267,76 267,76C267,76 262.023,74.246 260.543,74C258.275,73.624 256.603,74.569 256.435,75.5C256.247,76.537 256.435,80 256.435,80L249.391,80Z" style="fill:#182449;stroke:#4FD8E8;stroke-width:0.75px;"/>
        </g>
        <g transform="matrix(0.650568,-0.759448,0.759448,0.650568,16.9215,259.087)">
            <path d="M250,110C248.667,105 250.667,85 252,80C252.515,78.068 257.485,78.068 258,80C259.333,85 261.333,105 260,110C259.141,113.221 250.859,113.221 250,110Z" style="fill:#8B6BE0;stroke:#4FD8E8;stroke-width:0.69px;"/>
        </g>
        <g transform="matrix(0.406605,-0.474655,0.596709,0.511161,89.6836,197.644)">
            <rect x="236" y="69" width="4" height="7" style="fill:#182449;stroke:#4FD8E8;stroke-width:0.98px;"/>
        </g>
    </g>
    <g transform="matrix(1,0,0,1,9.48556,2.84217e-14)">
        <path d="M162.568,177.053C164.202,176.403 166.481,176 169,176C171.88,176 174.445,176.527 176.093,177.347C177.275,177.125 178.6,177 180,177C184.967,177 189,178.568 189,180.5C189,181.801 187.17,182.937 184.457,183.541C185.431,184.1 186,184.774 186,185.5C186,187.432 181.967,189 177,189C172.974,189 169.561,187.97 168.413,186.55C167.871,186.669 167.293,186.767 166.688,186.841C165.04,187.552 162.653,188 160,188C155.033,188 151,186.432 151,184.5C151,183.631 151.816,182.835 153.166,182.223C152.424,181.714 152,181.126 152,180.5C152,178.568 156.033,177 161,177C161.534,177 162.058,177.018 162.568,177.053Z" style="fill:#182449;stroke:#4FD8E8;stroke-width:0.35px;"/>
    </g>

    </g>
  </svg>
  <text x="2715" y="1660" text-anchor="middle" font-family="Segoe UI, Calibri, Arial, sans-serif" font-size="80"
        font-weight="600" fill="url(#accentGradient)">Dead</text>

  <!-- ============ FOOTER ============ -->
  <line x1="160" y1="2000" x2="3680" y2="2000" stroke="#2C3560" stroke-width="2"/>

  <text x="160" y="2065" font-family="Segoe UI, Calibri, Arial, sans-serif" font-size="45" fill="#7C86A8">EUMaster4HPC Summer School 2026</text>
  <text x="1920" y="2065" text-anchor="middle" font-family="Segoe UI, Calibri, Arial, sans-serif" font-size="45" fill="#7C86A8">Microsoft &#8226; The Cronos Group</text>

  <text x="3680" y="2065" text-anchor="end" font-family="Segoe UI, Calibri, Arial, sans-serif"
        font-size="45" fill="#7C86A8">12</text>

</svg>