<?xml version="1.0" encoding="UTF-8" standalone="no"?>
<!-- Slide 07: Global logistics / supply-chain optimization motif -->
<!-- Graphics recreated in SVG, inspired by https://github.com/Djohnnie/DeKrachtVanKwantumComputers-NerdlandFestival-2025/blob/main/_slides/07.jpg -->
<svg width="3840" height="2160" viewBox="0 0 3840 2160" xmlns="http://www.w3.org/2000/svg" xmlns:xlink="http://www.w3.org/1999/xlink">

  <defs>
    <linearGradient id="bgGradient" x1="0%" y1="0%" x2="100%" y2="100%">
      <stop offset="0%"   stop-color="#0B0F1E"/>
      <stop offset="55%"  stop-color="#0F1530"/>
      <stop offset="100%" stop-color="#151B3B"/>
    </linearGradient>

    <radialGradient id="glowCyan" cx="50%" cy="50%" r="50%">
      <stop offset="0%"   stop-color="#4FD8E8" stop-opacity="0.35"/>
      <stop offset="100%" stop-color="#4FD8E8" stop-opacity="0"/>
    </radialGradient>
    <radialGradient id="glowPurple" cx="50%" cy="50%" r="50%">
      <stop offset="0%"   stop-color="#8B6BE0" stop-opacity="0.30"/>
      <stop offset="100%" stop-color="#8B6BE0" stop-opacity="0"/>
    </radialGradient>

    <linearGradient id="accentGradient" x1="0%" y1="0%" x2="100%" y2="0%">
      <stop offset="0%"   stop-color="#3FD0E0"/>
      <stop offset="100%" stop-color="#8B6BE0"/>
    </linearGradient>
  </defs>

  <!-- ============ BACKGROUND ============ -->
  <rect x="0" y="0" width="3840" height="2160" fill="url(#bgGradient)"/>

  <!-- Subtle circuit-board style grid lines (very low opacity) -->
  <g stroke="#4FD8E8" stroke-width="1.5" opacity="0.06">
    <line x1="0" y1="360"  x2="3840" y2="360"/>
    <line x1="0" y1="720"  x2="3840" y2="720"/>
    <line x1="0" y1="1080" x2="3840" y2="1080"/>
    <line x1="0" y1="1440" x2="3840" y2="1440"/>
    <line x1="0" y1="1800" x2="3840" y2="1800"/>
    <line x1="640"  y1="0" x2="640"  y2="2160"/>
    <line x1="1280" y1="0" x2="1280" y2="2160"/>
    <line x1="1920" y1="0" x2="1920" y2="2160"/>
    <line x1="2560" y1="0" x2="2560" y2="2160"/>
    <line x1="3200" y1="0" x2="3200" y2="2160"/>
  </g>

  <!-- Decorative glows -->
  <circle cx="3450" cy="260" r="520" fill="url(#glowCyan)"/>
  <circle cx="420" cy="1950" r="560" fill="url(#glowPurple)"/>

  <!-- ============ HEADER / EYEBROW ============ -->
  <text x="160" y="200" font-family="Segoe UI, Calibri, Arial, sans-serif" font-size="63"
        letter-spacing="9" fill="#4FD8E8" font-weight="600">GLOBAL LOGISTICS &amp; SUPPLY CHAINS</text>

  <!-- Accent rule -->
  <rect x="160" y="250" width="330" height="12" rx="6" fill="url(#accentGradient)"/>

  <!-- ============ LOGISTICS / SUPPLY-CHAIN ILLUSTRATION ============ -->
<path d="M 900,700 Q 1250,900 1600,900" fill="none" stroke="#4FD8E8" stroke-width="8" stroke-dasharray="26 22" stroke-linecap="round" opacity="0.85"/>
<g transform="translate(700,620) rotate(-18) scale(22.0) translate(-11.5,-12)" fill="#F5F6FA" opacity="0.95">
  <path d="M21,16v-2l-8-5V3.5C13,2.67,12.33,2,11.5,2S10,2.67,10,3.5V9l-8,5v2l8-2.5V19l-2,1.5V22l3.5-1l3.5,1v-1.5L13,19v-5.5L21,16z"/>
</g>
<g transform="translate(2000,800)">
  <circle cx="0" cy="0" r="330" fill="none" stroke="#4FD8E8" stroke-width="10"/>
  <ellipse cx="0" cy="0" rx="330" ry="115.5" fill="none" stroke="#4FD8E8" stroke-width="6" opacity="0.75"/>
  <ellipse cx="0" cy="0" rx="330" ry="231.0" fill="none" stroke="#4FD8E8" stroke-width="6" opacity="0.75"/>
  <line x1="-330" y1="0" x2="330" y2="0" stroke="#4FD8E8" stroke-width="6" opacity="0.75"/>
  <ellipse cx="0" cy="0" rx="115.5" ry="330" fill="none" stroke="#4FD8E8" stroke-width="6" opacity="0.75"/>
  <ellipse cx="0" cy="0" rx="231.0" ry="330" fill="none" stroke="#4FD8E8" stroke-width="6" opacity="0.75"/>
  <ellipse cx="0" cy="0" rx="330.0" ry="330" fill="none" stroke="#4FD8E8" stroke-width="6" opacity="0.75"/>
</g>
  <path d="M 2237.6,690.4 C 2142.6,619.15 2142.6,509.9 2237.6,500.4 C 2332.6,509.9 2332.6,619.15 2237.6,690.4 Z" fill="#F5F6FA"/>
  <circle cx="2237.6" cy="581.15" r="39.9" fill="#0F1530"/>
<path d="M 2380,620 Q 2650,480 2900,540" fill="none" stroke="#F5F6FA" stroke-width="8" stroke-dasharray="26 22" stroke-linecap="round" opacity="0.85"/>
<g transform="translate(300,1350) scale(0.95)" >
  <rect x="0" y="0" width="1100" height="360" rx="16" fill="none" stroke="#F5F6FA" stroke-width="10"/>
  <line x1="68.8" y1="20" x2="68.8" y2="340" stroke="#F5F6FA" stroke-width="5" opacity="0.6"/>
  <line x1="137.5" y1="20" x2="137.5" y2="340" stroke="#F5F6FA" stroke-width="5" opacity="0.6"/>
  <line x1="206.2" y1="20" x2="206.2" y2="340" stroke="#F5F6FA" stroke-width="5" opacity="0.6"/>
  <line x1="275.0" y1="20" x2="275.0" y2="340" stroke="#F5F6FA" stroke-width="5" opacity="0.6"/>
  <line x1="343.8" y1="20" x2="343.8" y2="340" stroke="#F5F6FA" stroke-width="5" opacity="0.6"/>
  <line x1="412.5" y1="20" x2="412.5" y2="340" stroke="#F5F6FA" stroke-width="5" opacity="0.6"/>
  <line x1="481.2" y1="20" x2="481.2" y2="340" stroke="#F5F6FA" stroke-width="5" opacity="0.6"/>
  <line x1="550.0" y1="20" x2="550.0" y2="340" stroke="#F5F6FA" stroke-width="5" opacity="0.6"/>
  <line x1="618.8" y1="20" x2="618.8" y2="340" stroke="#F5F6FA" stroke-width="5" opacity="0.6"/>
  <line x1="687.5" y1="20" x2="687.5" y2="340" stroke="#F5F6FA" stroke-width="5" opacity="0.6"/>
  <line x1="756.2" y1="20" x2="756.2" y2="340" stroke="#F5F6FA" stroke-width="5" opacity="0.6"/>
  <line x1="825.0" y1="20" x2="825.0" y2="340" stroke="#F5F6FA" stroke-width="5" opacity="0.6"/>
  <line x1="893.8" y1="20" x2="893.8" y2="340" stroke="#F5F6FA" stroke-width="5" opacity="0.6"/>
  <line x1="962.5" y1="20" x2="962.5" y2="340" stroke="#F5F6FA" stroke-width="5" opacity="0.6"/>
  <line x1="1031.2" y1="20" x2="1031.2" y2="340" stroke="#F5F6FA" stroke-width="5" opacity="0.6"/>
  <rect x="1100" y="30" width="70" height="120" fill="url(#accentGradient)"/>
  <path d="M 1170,360 L 1170,140 L 1260,60 L 1430,60 L 1430,360 Z" fill="none" stroke="#F5F6FA" stroke-width="10" stroke-linejoin="round"/>
  <path d="M 1200,150 L 1280,95 L 1380,95 L 1380,150 Z" fill="none" stroke="#4FD8E8" stroke-width="8" stroke-linejoin="round"/>
  <line x1="-20" y1="360" x2="1430" y2="360" stroke="#F5F6FA" stroke-width="10"/>
  <circle cx="140" cy="400" r="55" fill="#0F1530" stroke="#F5F6FA" stroke-width="10"/>
  <circle cx="140" cy="400" r="20" fill="#F5F6FA"/>
  <circle cx="340" cy="400" r="55" fill="#0F1530" stroke="#F5F6FA" stroke-width="10"/>
  <circle cx="340" cy="400" r="20" fill="#F5F6FA"/>
  <circle cx="900" cy="400" r="55" fill="#0F1530" stroke="#F5F6FA" stroke-width="10"/>
  <circle cx="900" cy="400" r="20" fill="#F5F6FA"/>
  <circle cx="1260" cy="400" r="55" fill="#0F1530" stroke="#F5F6FA" stroke-width="10"/>
  <circle cx="1260" cy="400" r="20" fill="#F5F6FA"/>
  <circle cx="1380" cy="400" r="55" fill="#0F1530" stroke="#F5F6FA" stroke-width="10"/>
  <circle cx="1380" cy="400" r="20" fill="#F5F6FA"/>
</g>
<g transform="translate(2350,1180) scale(1.0)">
  <rect x="0" y="0" width="320" height="320" fill="none" stroke="#F5F6FA" stroke-width="10"/>
  <line x1="0" y1="0" x2="320" y2="320" stroke="#F5F6FA" stroke-width="8"/>
  <line x1="320" y1="0" x2="0" y2="320" stroke="#F5F6FA" stroke-width="8"/>
  <rect x="20" y="20" width="280" height="280" fill="url(#accentGradient)" opacity="0.35"/>
  <g transform="translate(350,0)">
    <rect x="0" y="0" width="220" height="320" fill="none" stroke="#F5F6FA" stroke-width="10"/>
    <line x1="20" y1="64.0" x2="200" y2="64.0" stroke="#F5F6FA" stroke-width="7" opacity="0.8"/>
    <line x1="20" y1="128.0" x2="200" y2="128.0" stroke="#F5F6FA" stroke-width="7" opacity="0.8"/>
    <line x1="20" y1="192.0" x2="200" y2="192.0" stroke="#F5F6FA" stroke-width="7" opacity="0.8"/>
    <line x1="20" y1="256.0" x2="200" y2="256.0" stroke="#F5F6FA" stroke-width="7" opacity="0.8"/>
  </g>
</g>
<g transform="translate(3150,1230) scale(1.05)">
  <rect x="0" y="40" width="420" height="560" rx="24" fill="none" stroke="#F5F6FA" stroke-width="10"/>
  <rect x="130" y="0" width="160" height="70" rx="18" fill="none" stroke="#F5F6FA" stroke-width="10"/>
  <circle cx="210" cy="35" r="18" fill="#F5F6FA"/>
  <path d="M 40,150 L 60,170 L 100,120" fill="none" stroke="#4FD8E8" stroke-width="12" stroke-linecap="round" stroke-linejoin="round"/>
  <line x1="130" y1="140" x2="380" y2="140" stroke="#F5F6FA" stroke-width="10" stroke-linecap="round" opacity="0.9"/>
  <path d="M 40,250 L 60,270 L 100,220" fill="none" stroke="#4FD8E8" stroke-width="12" stroke-linecap="round" stroke-linejoin="round"/>
  <line x1="130" y1="240" x2="380" y2="240" stroke="#F5F6FA" stroke-width="10" stroke-linecap="round" opacity="0.9"/>
  <path d="M 40,350 L 60,370 L 100,320" fill="none" stroke="#4FD8E8" stroke-width="12" stroke-linecap="round" stroke-linejoin="round"/>
  <line x1="130" y1="340" x2="380" y2="340" stroke="#F5F6FA" stroke-width="10" stroke-linecap="round" opacity="0.9"/>
  <path d="M 40,450 L 60,470 L 100,420" fill="none" stroke="#4FD8E8" stroke-width="12" stroke-linecap="round" stroke-linejoin="round"/>
  <line x1="130" y1="440" x2="380" y2="440" stroke="#F5F6FA" stroke-width="10" stroke-linecap="round" opacity="0.9"/>
</g>

  <!-- ============ FOOTER ============ -->
  <line x1="160" y1="2000" x2="3680" y2="2000" stroke="#2C3560" stroke-width="2"/>

  <text x="160" y="2065" font-family="Segoe UI, Calibri, Arial, sans-serif" font-size="45" fill="#7C86A8">EUMaster4HPC Summer School 2026</text>
  <text x="1920" y="2065" text-anchor="middle" font-family="Segoe UI, Calibri, Arial, sans-serif" font-size="45" fill="#7C86A8">Microsoft &#8226; The Cronos Group</text>

  <text x="3680" y="2065" text-anchor="end" font-family="Segoe UI, Calibri, Arial, sans-serif"
        font-size="45" fill="#7C86A8">07</text>

</svg>
